M48
;GenerationSoftware,Autodesk,EAGLE,9.6.2*%
;CreationDate,2024-07-19T02:52:32Z*%
FMAT,2
ICI,OFF
METRIC,TZ,000.000
T13C0.200
T12C0.350
T11C0.500
T10C0.600
T9C0.800
T8C0.914
T7C1.000
T6C1.016
T5C1.300
T4C1.550
T3C1.650
T2C2.000
T1C3.200
%
G90
M71
T1
X94996Y95758
X4064Y20066
X4064Y95758
X94996Y20066
T2
X39116Y83048
X23916Y74148
X21416Y91948
X13816Y91948
T3
X87376Y89916
X82296Y89916
T4
X5334Y79502
X5334Y84582
X5334Y58674
X5334Y53594
X5334Y48514
X5334Y74168
X5334Y69088
X5334Y64008
X5334Y89662
T5
X14216Y38292
X26416Y38292
X26416Y66294
X14216Y66294
X14216Y54294
X26416Y54294
X28416Y60294
X5334Y31242
X5334Y26162
X5334Y42418
X5334Y37338
X28416Y44292
X26416Y50292
X14216Y50292
T6
X41402Y49022
X43942Y49022
X41402Y46482
X43942Y46482
X41402Y43942
X43942Y43942
X90932Y29210
X90932Y31750
X90932Y34290
X90932Y36830
X90932Y39370
X90932Y41910
X90932Y44450
X90932Y46990
X90932Y49530
X90932Y52070
X90932Y54610
X90932Y57150
X90932Y59690
X90932Y62230
X90932Y64770
X55372Y29210
X55372Y31750
X55372Y34290
X55372Y36830
X55372Y39370
X55372Y41910
X55372Y44450
X55372Y46990
X55372Y49530
X55372Y52070
X55372Y54610
X55372Y57150
X55372Y59690
X55372Y62230
X55372Y64770
X52832Y64770
X52832Y62230
X52832Y59690
X52832Y57150
X52832Y54610
X52832Y52070
X52832Y49530
X52832Y46990
X52832Y44450
X52832Y41910
X52832Y39370
X52832Y34290
X52832Y31750
X52832Y36830
X52832Y29210
X93472Y29210
X93472Y31750
X93472Y34290
X93472Y36830
X93472Y39370
X93472Y41910
X93472Y44450
X93472Y46990
X93472Y49530
X93472Y52070
X93472Y54610
X93472Y57150
X93472Y59690
X93472Y62230
X93472Y64770
X96012Y64770
X96012Y62230
X96012Y59690
X96012Y57150
X96012Y54610
X96012Y52070
X96012Y49530
X96012Y46990
X96012Y44450
X96012Y41910
X96012Y39370
X96012Y36830
X96012Y34290
X96012Y31750
X96012Y29210
X50292Y64770
X50292Y62230
X50292Y59690
X50292Y57150
X50292Y54610
X50292Y52070
X50292Y49530
X50292Y46990
X50292Y44450
X50292Y41910
X50292Y39370
X50292Y36830
X50292Y34290
X50292Y31750
X50292Y29210
X44704Y29464
X42164Y29464
X39624Y29464
X37846Y17907
X37846Y20447
X40386Y17907
X40386Y20447
X42926Y17907
X42926Y20447
X45466Y17907
X45466Y20447
X48514Y18034
X48514Y20574
X51054Y18034
X51054Y20574
X53594Y18034
X53594Y20574
X56134Y18034
X56134Y20574
X47244Y81280
X47244Y83820
X49784Y81280
X49784Y83820
X52324Y81280
X52324Y83820
X54864Y81280
X54864Y83820
X88392Y29210
X88392Y31750
X88392Y34290
X88392Y36830
X88392Y39370
X88392Y41910
X88392Y44450
X88392Y46990
X88392Y49530
X88392Y52070
X88392Y54610
X88392Y57150
X88392Y59690
X88392Y62230
X88392Y64770
X41402Y51562
X57912Y29210
X57912Y31750
X57912Y34290
X57912Y36830
X57912Y41910
X57912Y44450
X57912Y46990
X57912Y49530
X57912Y52070
X57912Y54610
X57912Y57150
X57912Y59690
X57912Y62230
X57912Y64770
X47244Y74676
X47244Y77216
X49784Y74676
X49784Y77216
X52324Y74676
X52324Y77216
X54864Y74676
X54864Y77216
X41402Y54102
X43942Y54102
X57912Y39370
X43942Y51562
T7
X85852Y44450
X60452Y41910
X30734Y28956
X20574Y28956
X85852Y29210
X85852Y31750
X85852Y34290
X85852Y36830
X85852Y39370
X85852Y41910
X60452Y31750
X85852Y46990
X85852Y49530
X85852Y52070
X85852Y54610
X85852Y57150
X85852Y59690
X85852Y62230
X85852Y64770
X60452Y29210
X12954Y28956
X60452Y34290
X60452Y36830
X60452Y39370
X60452Y44450
X60452Y46990
X60452Y49530
X60452Y52070
X60452Y54610
X60452Y57150
X60452Y59690
X60452Y62230
X60452Y64770
X36616Y77948
X36616Y88148
X12954Y34798
X20574Y34798
X30734Y34798
X33274Y34798
X33274Y28956
T8
X59436Y18034
X59436Y20574
T9
X50744Y93726
X47244Y93726
T10
X71532Y21714
X77312Y21714
X70097Y22204
X78747Y22204
X70097Y18034
X78747Y18034
T11
X97218Y95758
X92773Y95758
X93408Y97345
X96583Y97345
X96583Y94170
X93408Y94170
X94996Y22288
X94996Y17844
X97218Y20066
X92773Y20066
X93408Y21654
X4064Y97980
X4064Y93535
X6286Y95758
X1841Y95758
X2477Y97345
X2477Y18479
X5651Y18479
X5651Y21654
X2477Y21654
X6286Y20066
X4064Y17844
X4064Y22288
X93408Y18479
X96583Y18479
X96583Y21654
X5651Y97345
X5651Y94170
X2477Y94170
X94996Y97980
X94996Y93535
X1841Y20066
T12
X74168Y30226
X67564Y34544
X69172Y30904
X67310Y30376
X67056Y37846
X73767Y25654
X74676Y25654
X65786Y38100
X64008Y22352
X63500Y32512
X66802Y22352
X72898Y37338
X64262Y23331
X62484Y34798
X70104Y38100
X85344Y22606
X79756Y28194
X29972Y52578
X37846Y53848
X37338Y50292
X38608Y45720
X38100Y42926
X47752Y44196
X44196Y37592
X40386Y37846
X37592Y34290
X40386Y32512
X47752Y32766
X48006Y27432
X43942Y24892
X37338Y24892
X60706Y23622
X85344Y18796
X95758Y25146
X60960Y72390
X91948Y76454
X84328Y77216
X89154Y70358
X62738Y91440
X67310Y36068
X53340Y87630
X41656Y77216
X85344Y25654
X86360Y25654
X87376Y25654
X86360Y22606
X87376Y22606
X80264Y23622
X82804Y28194
X71120Y24130
X75946Y24638
X37338Y74422
X38100Y69342
X33528Y69342
X38100Y59436
X34544Y59436
X38100Y57404
X37846Y62484
X34798Y64262
X32766Y60838
X75438Y86868
X66802Y88900
X36322Y71496
X32766Y50668
X32766Y64638
X34544Y39624
X32766Y57780
X37846Y60706
X32766Y53980
X40132Y70358
X40132Y72644
X48006Y69596
X32766Y46868
X37846Y65278
X37846Y56134
X38077Y51562
X69012Y22606
X69850Y49784
X42799Y72517
X70612Y42164
X74676Y35306
X71628Y29210
X69088Y84328
X80264Y80010
X78232Y44450
X68072Y24130
X77930Y37592
X76200Y42418
X79248Y44450
X83670Y41402
X80010Y59690
X67310Y32258
X79756Y60960
X78232Y24384
X72390Y24384
X69342Y26670
X68580Y49784
X68580Y43688
X68580Y32766
X69342Y28702
T13
X73324Y57196
X70571Y56278
X72406Y56278
X74241Y56278
X71489Y55361
X73324Y55361
X71489Y59031
X73324Y59031
X70571Y58113
X72406Y58113
X74241Y58113
X71489Y57196
M30