G04 EAGLE Gerber RS-274X export*
G75*
%MOMM*%
%FSLAX34Y34*%
%LPD*%
%IN*%
%IPPOS*%
%AMOC8*
5,1,8,0,0,1.08239X$1,22.5*%
G01*
%ADD10C,0.254000*%


D10*
X0Y200660D02*
X155Y197118D01*
X617Y193603D01*
X1385Y190142D01*
X2451Y186760D01*
X3808Y183485D01*
X5445Y180340D01*
X7350Y177350D01*
X9508Y174537D01*
X11903Y171923D01*
X14517Y169528D01*
X17330Y167370D01*
X20320Y165465D01*
X23465Y163828D01*
X26740Y162471D01*
X30122Y161405D01*
X33583Y160637D01*
X37098Y160175D01*
X40640Y160020D01*
X949960Y160020D01*
X953502Y160175D01*
X957017Y160637D01*
X960478Y161405D01*
X963860Y162471D01*
X967135Y163828D01*
X970280Y165465D01*
X973270Y167370D01*
X976083Y169528D01*
X978697Y171923D01*
X981092Y174537D01*
X983250Y177350D01*
X985155Y180340D01*
X986792Y183485D01*
X988149Y186760D01*
X989215Y190142D01*
X989983Y193603D01*
X990445Y197118D01*
X990600Y200660D01*
X990600Y960120D01*
X990445Y963662D01*
X989983Y967177D01*
X989215Y970638D01*
X988149Y974020D01*
X986792Y977295D01*
X985155Y980440D01*
X983250Y983430D01*
X981092Y986243D01*
X978697Y988857D01*
X976083Y991252D01*
X973270Y993410D01*
X970280Y995315D01*
X967135Y996952D01*
X963860Y998309D01*
X960478Y999375D01*
X957017Y1000143D01*
X953502Y1000605D01*
X949960Y1000760D01*
X40640Y1000760D01*
X37098Y1000605D01*
X33583Y1000143D01*
X30122Y999375D01*
X26740Y998309D01*
X23465Y996952D01*
X20320Y995315D01*
X17330Y993410D01*
X14517Y991252D01*
X11903Y988857D01*
X9508Y986243D01*
X7350Y983430D01*
X5445Y980440D01*
X3808Y977295D01*
X2451Y974020D01*
X1385Y970638D01*
X617Y967177D01*
X155Y963662D01*
X0Y960120D01*
X0Y200660D01*
X784470Y176340D02*
X784481Y176079D01*
X784516Y175819D01*
X784572Y175564D01*
X784651Y175314D01*
X784751Y175072D01*
X784872Y174840D01*
X785013Y174619D01*
X785172Y174412D01*
X785349Y174219D01*
X785542Y174042D01*
X785749Y173883D01*
X785970Y173742D01*
X786202Y173621D01*
X786444Y173521D01*
X786694Y173442D01*
X786949Y173386D01*
X787209Y173351D01*
X787470Y173340D01*
X787731Y173351D01*
X787991Y173386D01*
X788246Y173442D01*
X788496Y173521D01*
X788738Y173621D01*
X788970Y173742D01*
X789191Y173883D01*
X789398Y174042D01*
X789591Y174219D01*
X789768Y174412D01*
X789927Y174619D01*
X790068Y174840D01*
X790189Y175072D01*
X790289Y175314D01*
X790368Y175564D01*
X790424Y175819D01*
X790459Y176079D01*
X790470Y176340D01*
X790470Y184340D01*
X790459Y184601D01*
X790424Y184861D01*
X790368Y185116D01*
X790289Y185366D01*
X790189Y185608D01*
X790068Y185840D01*
X789927Y186061D01*
X789768Y186268D01*
X789591Y186461D01*
X789398Y186638D01*
X789191Y186797D01*
X788970Y186938D01*
X788738Y187059D01*
X788496Y187159D01*
X788246Y187238D01*
X787991Y187294D01*
X787731Y187329D01*
X787470Y187340D01*
X787209Y187329D01*
X786949Y187294D01*
X786694Y187238D01*
X786444Y187159D01*
X786202Y187059D01*
X785970Y186938D01*
X785749Y186797D01*
X785542Y186638D01*
X785349Y186461D01*
X785172Y186268D01*
X785013Y186061D01*
X784872Y185840D01*
X784751Y185608D01*
X784651Y185366D01*
X784572Y185116D01*
X784516Y184861D01*
X784481Y184601D01*
X784470Y184340D01*
X784470Y176340D01*
X697970Y176340D02*
X697981Y176079D01*
X698016Y175819D01*
X698072Y175564D01*
X698151Y175314D01*
X698251Y175072D01*
X698372Y174840D01*
X698513Y174619D01*
X698672Y174412D01*
X698849Y174219D01*
X699042Y174042D01*
X699249Y173883D01*
X699470Y173742D01*
X699702Y173621D01*
X699944Y173521D01*
X700194Y173442D01*
X700449Y173386D01*
X700709Y173351D01*
X700970Y173340D01*
X701231Y173351D01*
X701491Y173386D01*
X701746Y173442D01*
X701996Y173521D01*
X702238Y173621D01*
X702470Y173742D01*
X702691Y173883D01*
X702898Y174042D01*
X703091Y174219D01*
X703268Y174412D01*
X703427Y174619D01*
X703568Y174840D01*
X703689Y175072D01*
X703789Y175314D01*
X703868Y175564D01*
X703924Y175819D01*
X703959Y176079D01*
X703970Y176340D01*
X703970Y184340D01*
X703959Y184601D01*
X703924Y184861D01*
X703868Y185116D01*
X703789Y185366D01*
X703689Y185608D01*
X703568Y185840D01*
X703427Y186061D01*
X703268Y186268D01*
X703091Y186461D01*
X702898Y186638D01*
X702691Y186797D01*
X702470Y186938D01*
X702238Y187059D01*
X701996Y187159D01*
X701746Y187238D01*
X701491Y187294D01*
X701231Y187329D01*
X700970Y187340D01*
X700709Y187329D01*
X700449Y187294D01*
X700194Y187238D01*
X699944Y187159D01*
X699702Y187059D01*
X699470Y186938D01*
X699249Y186797D01*
X699042Y186638D01*
X698849Y186461D01*
X698672Y186268D01*
X698513Y186061D01*
X698372Y185840D01*
X698251Y185608D01*
X698151Y185366D01*
X698072Y185116D01*
X698016Y184861D01*
X697981Y184601D01*
X697970Y184340D01*
X697970Y176340D01*
X784470Y216540D02*
X784481Y216279D01*
X784516Y216019D01*
X784572Y215764D01*
X784651Y215514D01*
X784751Y215272D01*
X784872Y215040D01*
X785013Y214819D01*
X785172Y214612D01*
X785349Y214419D01*
X785542Y214242D01*
X785749Y214083D01*
X785970Y213942D01*
X786202Y213821D01*
X786444Y213721D01*
X786694Y213642D01*
X786949Y213586D01*
X787209Y213551D01*
X787470Y213540D01*
X787731Y213551D01*
X787991Y213586D01*
X788246Y213642D01*
X788496Y213721D01*
X788738Y213821D01*
X788970Y213942D01*
X789191Y214083D01*
X789398Y214242D01*
X789591Y214419D01*
X789768Y214612D01*
X789927Y214819D01*
X790068Y215040D01*
X790189Y215272D01*
X790289Y215514D01*
X790368Y215764D01*
X790424Y216019D01*
X790459Y216279D01*
X790470Y216540D01*
X790470Y227540D01*
X790459Y227801D01*
X790424Y228061D01*
X790368Y228316D01*
X790289Y228566D01*
X790189Y228808D01*
X790068Y229040D01*
X789927Y229261D01*
X789768Y229468D01*
X789591Y229661D01*
X789398Y229838D01*
X789191Y229997D01*
X788970Y230138D01*
X788738Y230259D01*
X788496Y230359D01*
X788246Y230438D01*
X787991Y230494D01*
X787731Y230529D01*
X787470Y230540D01*
X787209Y230529D01*
X786949Y230494D01*
X786694Y230438D01*
X786444Y230359D01*
X786202Y230259D01*
X785970Y230138D01*
X785749Y229997D01*
X785542Y229838D01*
X785349Y229661D01*
X785172Y229468D01*
X785013Y229261D01*
X784872Y229040D01*
X784751Y228808D01*
X784651Y228566D01*
X784572Y228316D01*
X784516Y228061D01*
X784481Y227801D01*
X784470Y227540D01*
X784470Y216540D01*
X697970Y216540D02*
X697981Y216279D01*
X698016Y216019D01*
X698072Y215764D01*
X698151Y215514D01*
X698251Y215272D01*
X698372Y215040D01*
X698513Y214819D01*
X698672Y214612D01*
X698849Y214419D01*
X699042Y214242D01*
X699249Y214083D01*
X699470Y213942D01*
X699702Y213821D01*
X699944Y213721D01*
X700194Y213642D01*
X700449Y213586D01*
X700709Y213551D01*
X700970Y213540D01*
X701231Y213551D01*
X701491Y213586D01*
X701746Y213642D01*
X701996Y213721D01*
X702238Y213821D01*
X702470Y213942D01*
X702691Y214083D01*
X702898Y214242D01*
X703091Y214419D01*
X703268Y214612D01*
X703427Y214819D01*
X703568Y215040D01*
X703689Y215272D01*
X703789Y215514D01*
X703868Y215764D01*
X703924Y216019D01*
X703959Y216279D01*
X703970Y216540D01*
X703970Y227540D01*
X703959Y227801D01*
X703924Y228061D01*
X703868Y228316D01*
X703789Y228566D01*
X703689Y228808D01*
X703568Y229040D01*
X703427Y229261D01*
X703268Y229468D01*
X703091Y229661D01*
X702898Y229838D01*
X702691Y229997D01*
X702470Y230138D01*
X702238Y230259D01*
X701996Y230359D01*
X701746Y230438D01*
X701491Y230494D01*
X701231Y230529D01*
X700970Y230540D01*
X700709Y230529D01*
X700449Y230494D01*
X700194Y230438D01*
X699944Y230359D01*
X699702Y230259D01*
X699470Y230138D01*
X699249Y229997D01*
X699042Y229838D01*
X698849Y229661D01*
X698672Y229468D01*
X698513Y229261D01*
X698372Y229040D01*
X698251Y228808D01*
X698151Y228566D01*
X698072Y228316D01*
X698016Y228061D01*
X697981Y227801D01*
X697970Y227540D01*
X697970Y216540D01*
X236220Y358140D02*
X241300Y353060D01*
X279400Y353060D01*
X279400Y170180D01*
X284480Y170180D01*
X284480Y355600D01*
X281940Y358140D01*
X243840Y358140D01*
X241300Y360680D01*
X241300Y401320D01*
X246380Y406400D01*
X304800Y406400D01*
X307340Y408940D01*
X307340Y480060D01*
X304800Y482600D01*
X246380Y482600D01*
X243840Y485140D01*
X243840Y561340D01*
X246380Y563880D01*
X304800Y563880D01*
X307340Y566420D01*
X307340Y632460D01*
X304800Y635000D01*
X248920Y635000D01*
X243840Y640080D01*
X243840Y680720D01*
X307340Y744220D01*
X337820Y744220D01*
X340360Y746760D01*
X340360Y795020D01*
X342900Y797560D01*
X421640Y797560D01*
X424180Y800100D01*
X424180Y858520D01*
X421640Y861060D01*
X347980Y861060D01*
X345440Y863600D01*
X345440Y988060D01*
X340360Y988060D01*
X340360Y861060D01*
X345440Y855980D01*
X419100Y855980D01*
X419100Y802640D01*
X342900Y802640D01*
X332740Y795020D01*
X332740Y751840D01*
X304800Y751840D01*
X238760Y685800D01*
X238760Y637540D01*
X246380Y629920D01*
X302260Y629920D01*
X302260Y568960D01*
X243840Y568960D01*
X238760Y563880D01*
X238760Y482600D01*
X243840Y477520D01*
X302260Y477520D01*
X302260Y414020D01*
X299720Y411480D01*
X243840Y411480D01*
X236220Y403860D01*
X236220Y358140D01*
X718320Y216904D02*
X718246Y216438D01*
X718100Y215988D01*
X717886Y215568D01*
X717608Y215186D01*
X717274Y214852D01*
X716892Y214574D01*
X716472Y214360D01*
X716023Y214214D01*
X715556Y214140D01*
X715084Y214140D01*
X714618Y214214D01*
X714168Y214360D01*
X713748Y214574D01*
X713366Y214852D01*
X713032Y215186D01*
X712754Y215568D01*
X712540Y215988D01*
X712394Y216438D01*
X712320Y216904D01*
X712320Y217376D01*
X712394Y217843D01*
X712540Y218292D01*
X712754Y218712D01*
X713032Y219094D01*
X713366Y219428D01*
X713748Y219706D01*
X714168Y219920D01*
X714618Y220066D01*
X715084Y220140D01*
X715556Y220140D01*
X716023Y220066D01*
X716472Y219920D01*
X716892Y219706D01*
X717274Y219428D01*
X717608Y219094D01*
X717886Y218712D01*
X718100Y218292D01*
X718246Y217843D01*
X718320Y217376D01*
X718320Y216904D01*
X776120Y216904D02*
X776046Y216438D01*
X775900Y215988D01*
X775686Y215568D01*
X775408Y215186D01*
X775074Y214852D01*
X774692Y214574D01*
X774272Y214360D01*
X773823Y214214D01*
X773356Y214140D01*
X772884Y214140D01*
X772418Y214214D01*
X771968Y214360D01*
X771548Y214574D01*
X771166Y214852D01*
X770832Y215186D01*
X770554Y215568D01*
X770340Y215988D01*
X770194Y216438D01*
X770120Y216904D01*
X770120Y217376D01*
X770194Y217843D01*
X770340Y218292D01*
X770554Y218712D01*
X770832Y219094D01*
X771166Y219428D01*
X771548Y219706D01*
X771968Y219920D01*
X772418Y220066D01*
X772884Y220140D01*
X773356Y220140D01*
X773823Y220066D01*
X774272Y219920D01*
X774692Y219706D01*
X775074Y219428D01*
X775408Y219094D01*
X775686Y218712D01*
X775900Y218292D01*
X776046Y217843D01*
X776120Y217376D01*
X776120Y216904D01*
M02*
