G04 EAGLE Gerber RS-274X export*
G75*
%MOMM*%
%FSLAX34Y34*%
%LPD*%
%IN*%
%IPPOS*%
%AMOC8*
5,1,8,0,0,1.08239X$1,22.5*%
G01*
%ADD10C,0.254000*%


D10*
X0Y200660D02*
X155Y197118D01*
X617Y193603D01*
X1385Y190142D01*
X2451Y186760D01*
X3808Y183485D01*
X5445Y180340D01*
X7350Y177350D01*
X9508Y174537D01*
X11903Y171923D01*
X14517Y169528D01*
X17330Y167370D01*
X20320Y165465D01*
X23465Y163828D01*
X26740Y162471D01*
X30122Y161405D01*
X33583Y160637D01*
X37098Y160175D01*
X40640Y160020D01*
X949960Y160020D01*
X953502Y160175D01*
X957017Y160637D01*
X960478Y161405D01*
X963860Y162471D01*
X967135Y163828D01*
X970280Y165465D01*
X973270Y167370D01*
X976083Y169528D01*
X978697Y171923D01*
X981092Y174537D01*
X983250Y177350D01*
X985155Y180340D01*
X986792Y183485D01*
X988149Y186760D01*
X989215Y190142D01*
X989983Y193603D01*
X990445Y197118D01*
X990600Y200660D01*
X990600Y960120D01*
X990445Y963662D01*
X989983Y967177D01*
X989215Y970638D01*
X988149Y974020D01*
X986792Y977295D01*
X985155Y980440D01*
X983250Y983430D01*
X981092Y986243D01*
X978697Y988857D01*
X976083Y991252D01*
X973270Y993410D01*
X970280Y995315D01*
X967135Y996952D01*
X963860Y998309D01*
X960478Y999375D01*
X957017Y1000143D01*
X953502Y1000605D01*
X949960Y1000760D01*
X40640Y1000760D01*
X37098Y1000605D01*
X33583Y1000143D01*
X30122Y999375D01*
X26740Y998309D01*
X23465Y996952D01*
X20320Y995315D01*
X17330Y993410D01*
X14517Y991252D01*
X11903Y988857D01*
X9508Y986243D01*
X7350Y983430D01*
X5445Y980440D01*
X3808Y977295D01*
X2451Y974020D01*
X1385Y970638D01*
X617Y967177D01*
X155Y963662D01*
X0Y960120D01*
X0Y200660D01*
X236220Y358140D02*
X241300Y353060D01*
X279400Y353060D01*
X279400Y170180D01*
X284480Y170180D01*
X284480Y355600D01*
X281940Y358140D01*
X243840Y358140D01*
X241300Y360680D01*
X241300Y401320D01*
X246380Y406400D01*
X304800Y406400D01*
X307340Y408940D01*
X307340Y480060D01*
X304800Y482600D01*
X246380Y482600D01*
X243840Y485140D01*
X243840Y561340D01*
X246380Y563880D01*
X304800Y563880D01*
X307340Y566420D01*
X307340Y632460D01*
X304800Y635000D01*
X248920Y635000D01*
X243840Y640080D01*
X243840Y680720D01*
X307340Y744220D01*
X337820Y744220D01*
X340360Y746760D01*
X340360Y795020D01*
X342900Y797560D01*
X421640Y797560D01*
X424180Y800100D01*
X424180Y858520D01*
X421640Y861060D01*
X347980Y861060D01*
X345440Y863600D01*
X345440Y988060D01*
X340360Y988060D01*
X340360Y861060D01*
X345440Y855980D01*
X419100Y855980D01*
X419100Y802640D01*
X342900Y802640D01*
X332740Y795020D01*
X332740Y751840D01*
X304800Y751840D01*
X238760Y685800D01*
X238760Y637540D01*
X246380Y629920D01*
X302260Y629920D01*
X302260Y568960D01*
X243840Y568960D01*
X238760Y563880D01*
X238760Y482600D01*
X243840Y477520D01*
X302260Y477520D01*
X302260Y414020D01*
X299720Y411480D01*
X243840Y411480D01*
X236220Y403860D01*
X236220Y358140D01*
M02*
