G04 EAGLE Gerber RS-274X export*
G75*
%MOMM*%
%FSLAX34Y34*%
%LPD*%
%INSilkscreen Bottom*%
%IPPOS*%
%AMOC8*
5,1,8,0,0,1.08239X$1,22.5*%
G01*
%ADD10C,0.076200*%


D10*
X19177Y890794D02*
X26543Y890794D01*
X19177Y894887D01*
X26543Y894887D01*
X24497Y898353D02*
X21223Y898353D01*
X24497Y898354D02*
X24586Y898356D01*
X24675Y898362D01*
X24764Y898372D01*
X24852Y898385D01*
X24940Y898402D01*
X25027Y898424D01*
X25112Y898449D01*
X25197Y898477D01*
X25280Y898510D01*
X25362Y898546D01*
X25442Y898585D01*
X25520Y898628D01*
X25596Y898674D01*
X25671Y898724D01*
X25743Y898777D01*
X25812Y898833D01*
X25879Y898892D01*
X25944Y898953D01*
X26005Y899018D01*
X26064Y899085D01*
X26120Y899154D01*
X26173Y899226D01*
X26223Y899301D01*
X26269Y899377D01*
X26312Y899455D01*
X26351Y899535D01*
X26387Y899617D01*
X26420Y899700D01*
X26448Y899785D01*
X26473Y899870D01*
X26495Y899957D01*
X26512Y900045D01*
X26525Y900133D01*
X26535Y900222D01*
X26541Y900311D01*
X26543Y900400D01*
X26541Y900489D01*
X26535Y900578D01*
X26525Y900667D01*
X26512Y900755D01*
X26495Y900843D01*
X26473Y900930D01*
X26448Y901015D01*
X26420Y901100D01*
X26387Y901183D01*
X26351Y901265D01*
X26312Y901345D01*
X26269Y901423D01*
X26223Y901499D01*
X26173Y901574D01*
X26120Y901646D01*
X26064Y901715D01*
X26005Y901782D01*
X25944Y901847D01*
X25879Y901908D01*
X25812Y901967D01*
X25743Y902023D01*
X25671Y902076D01*
X25596Y902126D01*
X25520Y902172D01*
X25442Y902215D01*
X25362Y902254D01*
X25280Y902290D01*
X25197Y902323D01*
X25112Y902351D01*
X25027Y902376D01*
X24940Y902398D01*
X24852Y902415D01*
X24764Y902428D01*
X24675Y902438D01*
X24586Y902444D01*
X24497Y902446D01*
X21223Y902446D01*
X21134Y902444D01*
X21045Y902438D01*
X20956Y902428D01*
X20868Y902415D01*
X20780Y902398D01*
X20693Y902376D01*
X20608Y902351D01*
X20523Y902323D01*
X20440Y902290D01*
X20358Y902254D01*
X20278Y902215D01*
X20200Y902172D01*
X20124Y902126D01*
X20049Y902076D01*
X19977Y902023D01*
X19908Y901967D01*
X19841Y901908D01*
X19776Y901847D01*
X19715Y901782D01*
X19656Y901715D01*
X19600Y901646D01*
X19547Y901574D01*
X19497Y901499D01*
X19451Y901423D01*
X19408Y901345D01*
X19369Y901265D01*
X19333Y901183D01*
X19300Y901100D01*
X19272Y901015D01*
X19247Y900930D01*
X19225Y900843D01*
X19208Y900755D01*
X19195Y900667D01*
X19185Y900578D01*
X19179Y900489D01*
X19177Y900400D01*
X19179Y900311D01*
X19185Y900222D01*
X19195Y900133D01*
X19208Y900045D01*
X19225Y899957D01*
X19247Y899870D01*
X19272Y899785D01*
X19300Y899700D01*
X19333Y899617D01*
X19369Y899535D01*
X19408Y899455D01*
X19451Y899377D01*
X19497Y899301D01*
X19547Y899226D01*
X19600Y899154D01*
X19656Y899085D01*
X19715Y899018D01*
X19776Y898953D01*
X19841Y898892D01*
X19908Y898833D01*
X19977Y898777D01*
X20049Y898724D01*
X20124Y898674D01*
X20200Y898628D01*
X20278Y898585D01*
X20358Y898546D01*
X20440Y898510D01*
X20523Y898477D01*
X20608Y898449D01*
X20693Y898424D01*
X20780Y898402D01*
X20868Y898385D01*
X20956Y898372D01*
X21045Y898362D01*
X21134Y898356D01*
X21223Y898354D01*
X19177Y839760D02*
X19177Y838123D01*
X19179Y838045D01*
X19184Y837967D01*
X19194Y837890D01*
X19207Y837813D01*
X19223Y837737D01*
X19243Y837662D01*
X19267Y837588D01*
X19294Y837515D01*
X19325Y837443D01*
X19359Y837373D01*
X19396Y837305D01*
X19437Y837238D01*
X19481Y837173D01*
X19527Y837111D01*
X19577Y837051D01*
X19629Y836993D01*
X19684Y836938D01*
X19742Y836886D01*
X19802Y836836D01*
X19864Y836790D01*
X19929Y836746D01*
X19995Y836705D01*
X20064Y836668D01*
X20134Y836634D01*
X20206Y836603D01*
X20279Y836576D01*
X20353Y836552D01*
X20428Y836532D01*
X20504Y836516D01*
X20581Y836503D01*
X20658Y836493D01*
X20736Y836488D01*
X20814Y836486D01*
X24906Y836486D01*
X24984Y836488D01*
X25062Y836493D01*
X25139Y836503D01*
X25216Y836516D01*
X25292Y836532D01*
X25367Y836552D01*
X25441Y836576D01*
X25514Y836603D01*
X25586Y836634D01*
X25656Y836668D01*
X25725Y836705D01*
X25791Y836746D01*
X25856Y836790D01*
X25918Y836836D01*
X25978Y836886D01*
X26036Y836938D01*
X26091Y836993D01*
X26143Y837051D01*
X26193Y837111D01*
X26239Y837173D01*
X26283Y837238D01*
X26324Y837305D01*
X26361Y837373D01*
X26395Y837443D01*
X26426Y837515D01*
X26453Y837588D01*
X26477Y837662D01*
X26497Y837737D01*
X26513Y837813D01*
X26526Y837890D01*
X26536Y837967D01*
X26541Y838045D01*
X26543Y838123D01*
X26543Y839760D01*
X24497Y842605D02*
X21223Y842605D01*
X24497Y842606D02*
X24586Y842608D01*
X24675Y842614D01*
X24764Y842624D01*
X24852Y842637D01*
X24940Y842654D01*
X25027Y842676D01*
X25112Y842701D01*
X25197Y842729D01*
X25280Y842762D01*
X25362Y842798D01*
X25442Y842837D01*
X25520Y842880D01*
X25596Y842926D01*
X25671Y842976D01*
X25743Y843029D01*
X25812Y843085D01*
X25879Y843144D01*
X25944Y843205D01*
X26005Y843270D01*
X26064Y843337D01*
X26120Y843406D01*
X26173Y843478D01*
X26223Y843553D01*
X26269Y843629D01*
X26312Y843707D01*
X26351Y843787D01*
X26387Y843869D01*
X26420Y843952D01*
X26448Y844037D01*
X26473Y844122D01*
X26495Y844209D01*
X26512Y844297D01*
X26525Y844385D01*
X26535Y844474D01*
X26541Y844563D01*
X26543Y844652D01*
X26541Y844741D01*
X26535Y844830D01*
X26525Y844919D01*
X26512Y845007D01*
X26495Y845095D01*
X26473Y845182D01*
X26448Y845267D01*
X26420Y845352D01*
X26387Y845435D01*
X26351Y845517D01*
X26312Y845597D01*
X26269Y845675D01*
X26223Y845751D01*
X26173Y845826D01*
X26120Y845898D01*
X26064Y845967D01*
X26005Y846034D01*
X25944Y846099D01*
X25879Y846160D01*
X25812Y846219D01*
X25743Y846275D01*
X25671Y846328D01*
X25596Y846378D01*
X25520Y846424D01*
X25442Y846467D01*
X25362Y846506D01*
X25280Y846542D01*
X25197Y846575D01*
X25112Y846603D01*
X25027Y846628D01*
X24940Y846650D01*
X24852Y846667D01*
X24764Y846680D01*
X24675Y846690D01*
X24586Y846696D01*
X24497Y846698D01*
X21223Y846698D01*
X21134Y846696D01*
X21045Y846690D01*
X20956Y846680D01*
X20868Y846667D01*
X20780Y846650D01*
X20693Y846628D01*
X20608Y846603D01*
X20523Y846575D01*
X20440Y846542D01*
X20358Y846506D01*
X20278Y846467D01*
X20200Y846424D01*
X20124Y846378D01*
X20049Y846328D01*
X19977Y846275D01*
X19908Y846219D01*
X19841Y846160D01*
X19776Y846099D01*
X19715Y846034D01*
X19656Y845967D01*
X19600Y845898D01*
X19547Y845826D01*
X19497Y845751D01*
X19451Y845675D01*
X19408Y845597D01*
X19369Y845517D01*
X19333Y845435D01*
X19300Y845352D01*
X19272Y845267D01*
X19247Y845182D01*
X19225Y845095D01*
X19208Y845007D01*
X19195Y844919D01*
X19185Y844830D01*
X19179Y844741D01*
X19177Y844652D01*
X19179Y844563D01*
X19185Y844474D01*
X19195Y844385D01*
X19208Y844297D01*
X19225Y844209D01*
X19247Y844122D01*
X19272Y844037D01*
X19300Y843952D01*
X19333Y843869D01*
X19369Y843787D01*
X19408Y843707D01*
X19451Y843629D01*
X19497Y843553D01*
X19547Y843478D01*
X19600Y843406D01*
X19656Y843337D01*
X19715Y843270D01*
X19776Y843205D01*
X19841Y843144D01*
X19908Y843085D01*
X19977Y843029D01*
X20049Y842976D01*
X20124Y842926D01*
X20200Y842880D01*
X20278Y842837D01*
X20358Y842798D01*
X20440Y842762D01*
X20523Y842729D01*
X20608Y842701D01*
X20693Y842676D01*
X20780Y842654D01*
X20868Y842637D01*
X20956Y842624D01*
X21045Y842614D01*
X21134Y842608D01*
X21223Y842606D01*
X19177Y850243D02*
X26543Y850243D01*
X22451Y852698D01*
X26543Y855154D01*
X19177Y855154D01*
X19177Y792155D02*
X26543Y792155D01*
X19177Y796247D01*
X26543Y796247D01*
X19177Y801328D02*
X19177Y802965D01*
X19177Y801328D02*
X19179Y801250D01*
X19184Y801172D01*
X19194Y801095D01*
X19207Y801018D01*
X19223Y800942D01*
X19243Y800867D01*
X19267Y800793D01*
X19294Y800720D01*
X19325Y800648D01*
X19359Y800578D01*
X19396Y800510D01*
X19437Y800443D01*
X19481Y800378D01*
X19527Y800316D01*
X19577Y800256D01*
X19629Y800198D01*
X19684Y800143D01*
X19742Y800091D01*
X19802Y800041D01*
X19864Y799995D01*
X19929Y799951D01*
X19995Y799910D01*
X20064Y799873D01*
X20134Y799839D01*
X20206Y799808D01*
X20279Y799781D01*
X20353Y799757D01*
X20428Y799737D01*
X20504Y799721D01*
X20581Y799708D01*
X20658Y799698D01*
X20736Y799693D01*
X20814Y799691D01*
X24906Y799691D01*
X24984Y799693D01*
X25062Y799698D01*
X25139Y799708D01*
X25216Y799721D01*
X25292Y799737D01*
X25367Y799757D01*
X25441Y799781D01*
X25514Y799808D01*
X25586Y799839D01*
X25656Y799873D01*
X25725Y799910D01*
X25791Y799951D01*
X25856Y799995D01*
X25918Y800041D01*
X25978Y800091D01*
X26036Y800143D01*
X26091Y800198D01*
X26143Y800256D01*
X26193Y800316D01*
X26239Y800378D01*
X26283Y800443D01*
X26324Y800510D01*
X26361Y800578D01*
X26395Y800648D01*
X26426Y800720D01*
X26453Y800793D01*
X26477Y800867D01*
X26497Y800942D01*
X26513Y801018D01*
X26526Y801095D01*
X26536Y801172D01*
X26541Y801250D01*
X26543Y801328D01*
X26543Y802965D01*
X26543Y738394D02*
X19177Y738394D01*
X19177Y742487D02*
X26543Y738394D01*
X26543Y742487D02*
X19177Y742487D01*
X21223Y745953D02*
X24497Y745953D01*
X24497Y745954D02*
X24586Y745956D01*
X24675Y745962D01*
X24764Y745972D01*
X24852Y745985D01*
X24940Y746002D01*
X25027Y746024D01*
X25112Y746049D01*
X25197Y746077D01*
X25280Y746110D01*
X25362Y746146D01*
X25442Y746185D01*
X25520Y746228D01*
X25596Y746274D01*
X25671Y746324D01*
X25743Y746377D01*
X25812Y746433D01*
X25879Y746492D01*
X25944Y746553D01*
X26005Y746618D01*
X26064Y746685D01*
X26120Y746754D01*
X26173Y746826D01*
X26223Y746901D01*
X26269Y746977D01*
X26312Y747055D01*
X26351Y747135D01*
X26387Y747217D01*
X26420Y747300D01*
X26448Y747385D01*
X26473Y747470D01*
X26495Y747557D01*
X26512Y747645D01*
X26525Y747733D01*
X26535Y747822D01*
X26541Y747911D01*
X26543Y748000D01*
X26541Y748089D01*
X26535Y748178D01*
X26525Y748267D01*
X26512Y748355D01*
X26495Y748443D01*
X26473Y748530D01*
X26448Y748615D01*
X26420Y748700D01*
X26387Y748783D01*
X26351Y748865D01*
X26312Y748945D01*
X26269Y749023D01*
X26223Y749099D01*
X26173Y749174D01*
X26120Y749246D01*
X26064Y749315D01*
X26005Y749382D01*
X25944Y749447D01*
X25879Y749508D01*
X25812Y749567D01*
X25743Y749623D01*
X25671Y749676D01*
X25596Y749726D01*
X25520Y749772D01*
X25442Y749815D01*
X25362Y749854D01*
X25280Y749890D01*
X25197Y749923D01*
X25112Y749951D01*
X25027Y749976D01*
X24940Y749998D01*
X24852Y750015D01*
X24764Y750028D01*
X24675Y750038D01*
X24586Y750044D01*
X24497Y750046D01*
X21223Y750046D01*
X21134Y750044D01*
X21045Y750038D01*
X20956Y750028D01*
X20868Y750015D01*
X20780Y749998D01*
X20693Y749976D01*
X20608Y749951D01*
X20523Y749923D01*
X20440Y749890D01*
X20358Y749854D01*
X20278Y749815D01*
X20200Y749772D01*
X20124Y749726D01*
X20049Y749676D01*
X19977Y749623D01*
X19908Y749567D01*
X19841Y749508D01*
X19776Y749447D01*
X19715Y749382D01*
X19656Y749315D01*
X19600Y749246D01*
X19547Y749174D01*
X19497Y749099D01*
X19451Y749023D01*
X19408Y748945D01*
X19369Y748865D01*
X19333Y748783D01*
X19300Y748700D01*
X19272Y748615D01*
X19247Y748530D01*
X19225Y748443D01*
X19208Y748355D01*
X19195Y748267D01*
X19185Y748178D01*
X19179Y748089D01*
X19177Y748000D01*
X19179Y747911D01*
X19185Y747822D01*
X19195Y747733D01*
X19208Y747645D01*
X19225Y747557D01*
X19247Y747470D01*
X19272Y747385D01*
X19300Y747300D01*
X19333Y747217D01*
X19369Y747135D01*
X19408Y747055D01*
X19451Y746977D01*
X19497Y746901D01*
X19547Y746826D01*
X19600Y746754D01*
X19656Y746685D01*
X19715Y746618D01*
X19776Y746553D01*
X19841Y746492D01*
X19908Y746433D01*
X19977Y746377D01*
X20049Y746324D01*
X20124Y746274D01*
X20200Y746228D01*
X20278Y746185D01*
X20358Y746146D01*
X20440Y746110D01*
X20523Y746077D01*
X20608Y746049D01*
X20693Y746024D01*
X20780Y746002D01*
X20868Y745985D01*
X20956Y745972D01*
X21045Y745962D01*
X21134Y745956D01*
X21223Y745954D01*
X19177Y684820D02*
X19177Y683183D01*
X19179Y683105D01*
X19184Y683027D01*
X19194Y682950D01*
X19207Y682873D01*
X19223Y682797D01*
X19243Y682722D01*
X19267Y682648D01*
X19294Y682575D01*
X19325Y682503D01*
X19359Y682433D01*
X19396Y682365D01*
X19437Y682298D01*
X19481Y682233D01*
X19527Y682171D01*
X19577Y682111D01*
X19629Y682053D01*
X19684Y681998D01*
X19742Y681946D01*
X19802Y681896D01*
X19864Y681850D01*
X19929Y681806D01*
X19995Y681765D01*
X20064Y681728D01*
X20134Y681694D01*
X20206Y681663D01*
X20279Y681636D01*
X20353Y681612D01*
X20428Y681592D01*
X20504Y681576D01*
X20581Y681563D01*
X20658Y681553D01*
X20736Y681548D01*
X20814Y681546D01*
X24906Y681546D01*
X24984Y681548D01*
X25062Y681553D01*
X25139Y681563D01*
X25216Y681576D01*
X25292Y681592D01*
X25367Y681612D01*
X25441Y681636D01*
X25514Y681663D01*
X25586Y681694D01*
X25656Y681728D01*
X25725Y681765D01*
X25791Y681806D01*
X25856Y681850D01*
X25918Y681896D01*
X25978Y681946D01*
X26036Y681998D01*
X26091Y682053D01*
X26143Y682111D01*
X26193Y682171D01*
X26239Y682233D01*
X26283Y682298D01*
X26324Y682365D01*
X26361Y682433D01*
X26395Y682503D01*
X26426Y682575D01*
X26453Y682648D01*
X26477Y682722D01*
X26497Y682797D01*
X26513Y682873D01*
X26526Y682950D01*
X26536Y683027D01*
X26541Y683105D01*
X26543Y683183D01*
X26543Y684820D01*
X24497Y687665D02*
X21223Y687665D01*
X24497Y687666D02*
X24586Y687668D01*
X24675Y687674D01*
X24764Y687684D01*
X24852Y687697D01*
X24940Y687714D01*
X25027Y687736D01*
X25112Y687761D01*
X25197Y687789D01*
X25280Y687822D01*
X25362Y687858D01*
X25442Y687897D01*
X25520Y687940D01*
X25596Y687986D01*
X25671Y688036D01*
X25743Y688089D01*
X25812Y688145D01*
X25879Y688204D01*
X25944Y688265D01*
X26005Y688330D01*
X26064Y688397D01*
X26120Y688466D01*
X26173Y688538D01*
X26223Y688613D01*
X26269Y688689D01*
X26312Y688767D01*
X26351Y688847D01*
X26387Y688929D01*
X26420Y689012D01*
X26448Y689097D01*
X26473Y689182D01*
X26495Y689269D01*
X26512Y689357D01*
X26525Y689445D01*
X26535Y689534D01*
X26541Y689623D01*
X26543Y689712D01*
X26541Y689801D01*
X26535Y689890D01*
X26525Y689979D01*
X26512Y690067D01*
X26495Y690155D01*
X26473Y690242D01*
X26448Y690327D01*
X26420Y690412D01*
X26387Y690495D01*
X26351Y690577D01*
X26312Y690657D01*
X26269Y690735D01*
X26223Y690811D01*
X26173Y690886D01*
X26120Y690958D01*
X26064Y691027D01*
X26005Y691094D01*
X25944Y691159D01*
X25879Y691220D01*
X25812Y691279D01*
X25743Y691335D01*
X25671Y691388D01*
X25596Y691438D01*
X25520Y691484D01*
X25442Y691527D01*
X25362Y691566D01*
X25280Y691602D01*
X25197Y691635D01*
X25112Y691663D01*
X25027Y691688D01*
X24940Y691710D01*
X24852Y691727D01*
X24764Y691740D01*
X24675Y691750D01*
X24586Y691756D01*
X24497Y691758D01*
X21223Y691758D01*
X21134Y691756D01*
X21045Y691750D01*
X20956Y691740D01*
X20868Y691727D01*
X20780Y691710D01*
X20693Y691688D01*
X20608Y691663D01*
X20523Y691635D01*
X20440Y691602D01*
X20358Y691566D01*
X20278Y691527D01*
X20200Y691484D01*
X20124Y691438D01*
X20049Y691388D01*
X19977Y691335D01*
X19908Y691279D01*
X19841Y691220D01*
X19776Y691159D01*
X19715Y691094D01*
X19656Y691027D01*
X19600Y690958D01*
X19547Y690886D01*
X19497Y690811D01*
X19451Y690735D01*
X19408Y690657D01*
X19369Y690577D01*
X19333Y690495D01*
X19300Y690412D01*
X19272Y690327D01*
X19247Y690242D01*
X19225Y690155D01*
X19208Y690067D01*
X19195Y689979D01*
X19185Y689890D01*
X19179Y689801D01*
X19177Y689712D01*
X19179Y689623D01*
X19185Y689534D01*
X19195Y689445D01*
X19208Y689357D01*
X19225Y689269D01*
X19247Y689182D01*
X19272Y689097D01*
X19300Y689012D01*
X19333Y688929D01*
X19369Y688847D01*
X19408Y688767D01*
X19451Y688689D01*
X19497Y688613D01*
X19547Y688538D01*
X19600Y688466D01*
X19656Y688397D01*
X19715Y688330D01*
X19776Y688265D01*
X19841Y688204D01*
X19908Y688145D01*
X19977Y688089D01*
X20049Y688036D01*
X20124Y687986D01*
X20200Y687940D01*
X20278Y687897D01*
X20358Y687858D01*
X20440Y687822D01*
X20523Y687789D01*
X20608Y687761D01*
X20693Y687736D01*
X20780Y687714D01*
X20868Y687697D01*
X20956Y687684D01*
X21045Y687674D01*
X21134Y687668D01*
X21223Y687666D01*
X19177Y695303D02*
X26543Y695303D01*
X22451Y697758D01*
X26543Y700214D01*
X19177Y700214D01*
X19177Y634675D02*
X26543Y634675D01*
X19177Y638767D01*
X26543Y638767D01*
X19177Y643848D02*
X19177Y645485D01*
X19177Y643848D02*
X19179Y643770D01*
X19184Y643692D01*
X19194Y643615D01*
X19207Y643538D01*
X19223Y643462D01*
X19243Y643387D01*
X19267Y643313D01*
X19294Y643240D01*
X19325Y643168D01*
X19359Y643098D01*
X19396Y643030D01*
X19437Y642963D01*
X19481Y642898D01*
X19527Y642836D01*
X19577Y642776D01*
X19629Y642718D01*
X19684Y642663D01*
X19742Y642611D01*
X19802Y642561D01*
X19864Y642515D01*
X19929Y642471D01*
X19995Y642430D01*
X20064Y642393D01*
X20134Y642359D01*
X20206Y642328D01*
X20279Y642301D01*
X20353Y642277D01*
X20428Y642257D01*
X20504Y642241D01*
X20581Y642228D01*
X20658Y642218D01*
X20736Y642213D01*
X20814Y642211D01*
X24906Y642211D01*
X24984Y642213D01*
X25062Y642218D01*
X25139Y642228D01*
X25216Y642241D01*
X25292Y642257D01*
X25367Y642277D01*
X25441Y642301D01*
X25514Y642328D01*
X25586Y642359D01*
X25656Y642393D01*
X25725Y642430D01*
X25791Y642471D01*
X25856Y642515D01*
X25918Y642561D01*
X25978Y642611D01*
X26036Y642663D01*
X26091Y642718D01*
X26143Y642776D01*
X26193Y642836D01*
X26239Y642898D01*
X26283Y642963D01*
X26324Y643030D01*
X26361Y643098D01*
X26395Y643168D01*
X26426Y643240D01*
X26453Y643313D01*
X26477Y643387D01*
X26497Y643462D01*
X26513Y643538D01*
X26526Y643615D01*
X26536Y643692D01*
X26541Y643770D01*
X26543Y643848D01*
X26543Y645485D01*
X26543Y580914D02*
X19177Y580914D01*
X19177Y585007D02*
X26543Y580914D01*
X26543Y585007D02*
X19177Y585007D01*
X21223Y588473D02*
X24497Y588473D01*
X24497Y588474D02*
X24586Y588476D01*
X24675Y588482D01*
X24764Y588492D01*
X24852Y588505D01*
X24940Y588522D01*
X25027Y588544D01*
X25112Y588569D01*
X25197Y588597D01*
X25280Y588630D01*
X25362Y588666D01*
X25442Y588705D01*
X25520Y588748D01*
X25596Y588794D01*
X25671Y588844D01*
X25743Y588897D01*
X25812Y588953D01*
X25879Y589012D01*
X25944Y589073D01*
X26005Y589138D01*
X26064Y589205D01*
X26120Y589274D01*
X26173Y589346D01*
X26223Y589421D01*
X26269Y589497D01*
X26312Y589575D01*
X26351Y589655D01*
X26387Y589737D01*
X26420Y589820D01*
X26448Y589905D01*
X26473Y589990D01*
X26495Y590077D01*
X26512Y590165D01*
X26525Y590253D01*
X26535Y590342D01*
X26541Y590431D01*
X26543Y590520D01*
X26541Y590609D01*
X26535Y590698D01*
X26525Y590787D01*
X26512Y590875D01*
X26495Y590963D01*
X26473Y591050D01*
X26448Y591135D01*
X26420Y591220D01*
X26387Y591303D01*
X26351Y591385D01*
X26312Y591465D01*
X26269Y591543D01*
X26223Y591619D01*
X26173Y591694D01*
X26120Y591766D01*
X26064Y591835D01*
X26005Y591902D01*
X25944Y591967D01*
X25879Y592028D01*
X25812Y592087D01*
X25743Y592143D01*
X25671Y592196D01*
X25596Y592246D01*
X25520Y592292D01*
X25442Y592335D01*
X25362Y592374D01*
X25280Y592410D01*
X25197Y592443D01*
X25112Y592471D01*
X25027Y592496D01*
X24940Y592518D01*
X24852Y592535D01*
X24764Y592548D01*
X24675Y592558D01*
X24586Y592564D01*
X24497Y592566D01*
X21223Y592566D01*
X21134Y592564D01*
X21045Y592558D01*
X20956Y592548D01*
X20868Y592535D01*
X20780Y592518D01*
X20693Y592496D01*
X20608Y592471D01*
X20523Y592443D01*
X20440Y592410D01*
X20358Y592374D01*
X20278Y592335D01*
X20200Y592292D01*
X20124Y592246D01*
X20049Y592196D01*
X19977Y592143D01*
X19908Y592087D01*
X19841Y592028D01*
X19776Y591967D01*
X19715Y591902D01*
X19656Y591835D01*
X19600Y591766D01*
X19547Y591694D01*
X19497Y591619D01*
X19451Y591543D01*
X19408Y591465D01*
X19369Y591385D01*
X19333Y591303D01*
X19300Y591220D01*
X19272Y591135D01*
X19247Y591050D01*
X19225Y590963D01*
X19208Y590875D01*
X19195Y590787D01*
X19185Y590698D01*
X19179Y590609D01*
X19177Y590520D01*
X19179Y590431D01*
X19185Y590342D01*
X19195Y590253D01*
X19208Y590165D01*
X19225Y590077D01*
X19247Y589990D01*
X19272Y589905D01*
X19300Y589820D01*
X19333Y589737D01*
X19369Y589655D01*
X19408Y589575D01*
X19451Y589497D01*
X19497Y589421D01*
X19547Y589346D01*
X19600Y589274D01*
X19656Y589205D01*
X19715Y589138D01*
X19776Y589073D01*
X19841Y589012D01*
X19908Y588953D01*
X19977Y588897D01*
X20049Y588844D01*
X20124Y588794D01*
X20200Y588748D01*
X20278Y588705D01*
X20358Y588666D01*
X20440Y588630D01*
X20523Y588597D01*
X20608Y588569D01*
X20693Y588544D01*
X20780Y588522D01*
X20868Y588505D01*
X20956Y588492D01*
X21045Y588482D01*
X21134Y588476D01*
X21223Y588474D01*
X19177Y529880D02*
X19177Y528243D01*
X19179Y528165D01*
X19184Y528087D01*
X19194Y528010D01*
X19207Y527933D01*
X19223Y527857D01*
X19243Y527782D01*
X19267Y527708D01*
X19294Y527635D01*
X19325Y527563D01*
X19359Y527493D01*
X19396Y527425D01*
X19437Y527358D01*
X19481Y527293D01*
X19527Y527231D01*
X19577Y527171D01*
X19629Y527113D01*
X19684Y527058D01*
X19742Y527006D01*
X19802Y526956D01*
X19864Y526910D01*
X19929Y526866D01*
X19995Y526825D01*
X20064Y526788D01*
X20134Y526754D01*
X20206Y526723D01*
X20279Y526696D01*
X20353Y526672D01*
X20428Y526652D01*
X20504Y526636D01*
X20581Y526623D01*
X20658Y526613D01*
X20736Y526608D01*
X20814Y526606D01*
X24906Y526606D01*
X24984Y526608D01*
X25062Y526613D01*
X25139Y526623D01*
X25216Y526636D01*
X25292Y526652D01*
X25367Y526672D01*
X25441Y526696D01*
X25514Y526723D01*
X25586Y526754D01*
X25656Y526788D01*
X25725Y526825D01*
X25791Y526866D01*
X25856Y526910D01*
X25918Y526956D01*
X25978Y527006D01*
X26036Y527058D01*
X26091Y527113D01*
X26143Y527171D01*
X26193Y527231D01*
X26239Y527293D01*
X26283Y527358D01*
X26324Y527425D01*
X26361Y527493D01*
X26395Y527563D01*
X26426Y527635D01*
X26453Y527708D01*
X26477Y527782D01*
X26497Y527857D01*
X26513Y527933D01*
X26526Y528010D01*
X26536Y528087D01*
X26541Y528165D01*
X26543Y528243D01*
X26543Y529880D01*
X24497Y532725D02*
X21223Y532725D01*
X24497Y532726D02*
X24586Y532728D01*
X24675Y532734D01*
X24764Y532744D01*
X24852Y532757D01*
X24940Y532774D01*
X25027Y532796D01*
X25112Y532821D01*
X25197Y532849D01*
X25280Y532882D01*
X25362Y532918D01*
X25442Y532957D01*
X25520Y533000D01*
X25596Y533046D01*
X25671Y533096D01*
X25743Y533149D01*
X25812Y533205D01*
X25879Y533264D01*
X25944Y533325D01*
X26005Y533390D01*
X26064Y533457D01*
X26120Y533526D01*
X26173Y533598D01*
X26223Y533673D01*
X26269Y533749D01*
X26312Y533827D01*
X26351Y533907D01*
X26387Y533989D01*
X26420Y534072D01*
X26448Y534157D01*
X26473Y534242D01*
X26495Y534329D01*
X26512Y534417D01*
X26525Y534505D01*
X26535Y534594D01*
X26541Y534683D01*
X26543Y534772D01*
X26541Y534861D01*
X26535Y534950D01*
X26525Y535039D01*
X26512Y535127D01*
X26495Y535215D01*
X26473Y535302D01*
X26448Y535387D01*
X26420Y535472D01*
X26387Y535555D01*
X26351Y535637D01*
X26312Y535717D01*
X26269Y535795D01*
X26223Y535871D01*
X26173Y535946D01*
X26120Y536018D01*
X26064Y536087D01*
X26005Y536154D01*
X25944Y536219D01*
X25879Y536280D01*
X25812Y536339D01*
X25743Y536395D01*
X25671Y536448D01*
X25596Y536498D01*
X25520Y536544D01*
X25442Y536587D01*
X25362Y536626D01*
X25280Y536662D01*
X25197Y536695D01*
X25112Y536723D01*
X25027Y536748D01*
X24940Y536770D01*
X24852Y536787D01*
X24764Y536800D01*
X24675Y536810D01*
X24586Y536816D01*
X24497Y536818D01*
X21223Y536818D01*
X21134Y536816D01*
X21045Y536810D01*
X20956Y536800D01*
X20868Y536787D01*
X20780Y536770D01*
X20693Y536748D01*
X20608Y536723D01*
X20523Y536695D01*
X20440Y536662D01*
X20358Y536626D01*
X20278Y536587D01*
X20200Y536544D01*
X20124Y536498D01*
X20049Y536448D01*
X19977Y536395D01*
X19908Y536339D01*
X19841Y536280D01*
X19776Y536219D01*
X19715Y536154D01*
X19656Y536087D01*
X19600Y536018D01*
X19547Y535946D01*
X19497Y535871D01*
X19451Y535795D01*
X19408Y535717D01*
X19369Y535637D01*
X19333Y535555D01*
X19300Y535472D01*
X19272Y535387D01*
X19247Y535302D01*
X19225Y535215D01*
X19208Y535127D01*
X19195Y535039D01*
X19185Y534950D01*
X19179Y534861D01*
X19177Y534772D01*
X19179Y534683D01*
X19185Y534594D01*
X19195Y534505D01*
X19208Y534417D01*
X19225Y534329D01*
X19247Y534242D01*
X19272Y534157D01*
X19300Y534072D01*
X19333Y533989D01*
X19369Y533907D01*
X19408Y533827D01*
X19451Y533749D01*
X19497Y533673D01*
X19547Y533598D01*
X19600Y533526D01*
X19656Y533457D01*
X19715Y533390D01*
X19776Y533325D01*
X19841Y533264D01*
X19908Y533205D01*
X19977Y533149D01*
X20049Y533096D01*
X20124Y533046D01*
X20200Y533000D01*
X20278Y532957D01*
X20358Y532918D01*
X20440Y532882D01*
X20523Y532849D01*
X20608Y532821D01*
X20693Y532796D01*
X20780Y532774D01*
X20868Y532757D01*
X20956Y532744D01*
X21045Y532734D01*
X21134Y532728D01*
X21223Y532726D01*
X19177Y540363D02*
X26543Y540363D01*
X22451Y542818D01*
X26543Y545274D01*
X19177Y545274D01*
X19177Y479735D02*
X26543Y479735D01*
X19177Y483827D01*
X26543Y483827D01*
X19177Y488908D02*
X19177Y490545D01*
X19177Y488908D02*
X19179Y488830D01*
X19184Y488752D01*
X19194Y488675D01*
X19207Y488598D01*
X19223Y488522D01*
X19243Y488447D01*
X19267Y488373D01*
X19294Y488300D01*
X19325Y488228D01*
X19359Y488158D01*
X19396Y488090D01*
X19437Y488023D01*
X19481Y487958D01*
X19527Y487896D01*
X19577Y487836D01*
X19629Y487778D01*
X19684Y487723D01*
X19742Y487671D01*
X19802Y487621D01*
X19864Y487575D01*
X19929Y487531D01*
X19995Y487490D01*
X20064Y487453D01*
X20134Y487419D01*
X20206Y487388D01*
X20279Y487361D01*
X20353Y487337D01*
X20428Y487317D01*
X20504Y487301D01*
X20581Y487288D01*
X20658Y487278D01*
X20736Y487273D01*
X20814Y487271D01*
X24906Y487271D01*
X24984Y487273D01*
X25062Y487278D01*
X25139Y487288D01*
X25216Y487301D01*
X25292Y487317D01*
X25367Y487337D01*
X25441Y487361D01*
X25514Y487388D01*
X25586Y487419D01*
X25656Y487453D01*
X25725Y487490D01*
X25791Y487531D01*
X25856Y487575D01*
X25918Y487621D01*
X25978Y487671D01*
X26036Y487723D01*
X26091Y487778D01*
X26143Y487836D01*
X26193Y487896D01*
X26239Y487958D01*
X26283Y488023D01*
X26324Y488090D01*
X26361Y488158D01*
X26395Y488228D01*
X26426Y488300D01*
X26453Y488373D01*
X26477Y488447D01*
X26497Y488522D01*
X26513Y488598D01*
X26526Y488675D01*
X26536Y488752D01*
X26541Y488830D01*
X26543Y488908D01*
X26543Y490545D01*
X26543Y418354D02*
X19177Y418354D01*
X19177Y422447D02*
X26543Y418354D01*
X26543Y422447D02*
X19177Y422447D01*
X21223Y425913D02*
X24497Y425913D01*
X24497Y425914D02*
X24586Y425916D01*
X24675Y425922D01*
X24764Y425932D01*
X24852Y425945D01*
X24940Y425962D01*
X25027Y425984D01*
X25112Y426009D01*
X25197Y426037D01*
X25280Y426070D01*
X25362Y426106D01*
X25442Y426145D01*
X25520Y426188D01*
X25596Y426234D01*
X25671Y426284D01*
X25743Y426337D01*
X25812Y426393D01*
X25879Y426452D01*
X25944Y426513D01*
X26005Y426578D01*
X26064Y426645D01*
X26120Y426714D01*
X26173Y426786D01*
X26223Y426861D01*
X26269Y426937D01*
X26312Y427015D01*
X26351Y427095D01*
X26387Y427177D01*
X26420Y427260D01*
X26448Y427345D01*
X26473Y427430D01*
X26495Y427517D01*
X26512Y427605D01*
X26525Y427693D01*
X26535Y427782D01*
X26541Y427871D01*
X26543Y427960D01*
X26541Y428049D01*
X26535Y428138D01*
X26525Y428227D01*
X26512Y428315D01*
X26495Y428403D01*
X26473Y428490D01*
X26448Y428575D01*
X26420Y428660D01*
X26387Y428743D01*
X26351Y428825D01*
X26312Y428905D01*
X26269Y428983D01*
X26223Y429059D01*
X26173Y429134D01*
X26120Y429206D01*
X26064Y429275D01*
X26005Y429342D01*
X25944Y429407D01*
X25879Y429468D01*
X25812Y429527D01*
X25743Y429583D01*
X25671Y429636D01*
X25596Y429686D01*
X25520Y429732D01*
X25442Y429775D01*
X25362Y429814D01*
X25280Y429850D01*
X25197Y429883D01*
X25112Y429911D01*
X25027Y429936D01*
X24940Y429958D01*
X24852Y429975D01*
X24764Y429988D01*
X24675Y429998D01*
X24586Y430004D01*
X24497Y430006D01*
X21223Y430006D01*
X21134Y430004D01*
X21045Y429998D01*
X20956Y429988D01*
X20868Y429975D01*
X20780Y429958D01*
X20693Y429936D01*
X20608Y429911D01*
X20523Y429883D01*
X20440Y429850D01*
X20358Y429814D01*
X20278Y429775D01*
X20200Y429732D01*
X20124Y429686D01*
X20049Y429636D01*
X19977Y429583D01*
X19908Y429527D01*
X19841Y429468D01*
X19776Y429407D01*
X19715Y429342D01*
X19656Y429275D01*
X19600Y429206D01*
X19547Y429134D01*
X19497Y429059D01*
X19451Y428983D01*
X19408Y428905D01*
X19369Y428825D01*
X19333Y428743D01*
X19300Y428660D01*
X19272Y428575D01*
X19247Y428490D01*
X19225Y428403D01*
X19208Y428315D01*
X19195Y428227D01*
X19185Y428138D01*
X19179Y428049D01*
X19177Y427960D01*
X19179Y427871D01*
X19185Y427782D01*
X19195Y427693D01*
X19208Y427605D01*
X19225Y427517D01*
X19247Y427430D01*
X19272Y427345D01*
X19300Y427260D01*
X19333Y427177D01*
X19369Y427095D01*
X19408Y427015D01*
X19451Y426937D01*
X19497Y426861D01*
X19547Y426786D01*
X19600Y426714D01*
X19656Y426645D01*
X19715Y426578D01*
X19776Y426513D01*
X19841Y426452D01*
X19908Y426393D01*
X19977Y426337D01*
X20049Y426284D01*
X20124Y426234D01*
X20200Y426188D01*
X20278Y426145D01*
X20358Y426106D01*
X20440Y426070D01*
X20523Y426037D01*
X20608Y426009D01*
X20693Y425984D01*
X20780Y425962D01*
X20868Y425945D01*
X20956Y425932D01*
X21045Y425922D01*
X21134Y425916D01*
X21223Y425914D01*
X19177Y369860D02*
X19177Y368223D01*
X19179Y368145D01*
X19184Y368067D01*
X19194Y367990D01*
X19207Y367913D01*
X19223Y367837D01*
X19243Y367762D01*
X19267Y367688D01*
X19294Y367615D01*
X19325Y367543D01*
X19359Y367473D01*
X19396Y367405D01*
X19437Y367338D01*
X19481Y367273D01*
X19527Y367211D01*
X19577Y367151D01*
X19629Y367093D01*
X19684Y367038D01*
X19742Y366986D01*
X19802Y366936D01*
X19864Y366890D01*
X19929Y366846D01*
X19995Y366805D01*
X20064Y366768D01*
X20134Y366734D01*
X20206Y366703D01*
X20279Y366676D01*
X20353Y366652D01*
X20428Y366632D01*
X20504Y366616D01*
X20581Y366603D01*
X20658Y366593D01*
X20736Y366588D01*
X20814Y366586D01*
X24906Y366586D01*
X24984Y366588D01*
X25062Y366593D01*
X25139Y366603D01*
X25216Y366616D01*
X25292Y366632D01*
X25367Y366652D01*
X25441Y366676D01*
X25514Y366703D01*
X25586Y366734D01*
X25656Y366768D01*
X25725Y366805D01*
X25791Y366846D01*
X25856Y366890D01*
X25918Y366936D01*
X25978Y366986D01*
X26036Y367038D01*
X26091Y367093D01*
X26143Y367151D01*
X26193Y367211D01*
X26239Y367273D01*
X26283Y367338D01*
X26324Y367405D01*
X26361Y367473D01*
X26395Y367543D01*
X26426Y367615D01*
X26453Y367688D01*
X26477Y367762D01*
X26497Y367837D01*
X26513Y367913D01*
X26526Y367990D01*
X26536Y368067D01*
X26541Y368145D01*
X26543Y368223D01*
X26543Y369860D01*
X24497Y372705D02*
X21223Y372705D01*
X24497Y372706D02*
X24586Y372708D01*
X24675Y372714D01*
X24764Y372724D01*
X24852Y372737D01*
X24940Y372754D01*
X25027Y372776D01*
X25112Y372801D01*
X25197Y372829D01*
X25280Y372862D01*
X25362Y372898D01*
X25442Y372937D01*
X25520Y372980D01*
X25596Y373026D01*
X25671Y373076D01*
X25743Y373129D01*
X25812Y373185D01*
X25879Y373244D01*
X25944Y373305D01*
X26005Y373370D01*
X26064Y373437D01*
X26120Y373506D01*
X26173Y373578D01*
X26223Y373653D01*
X26269Y373729D01*
X26312Y373807D01*
X26351Y373887D01*
X26387Y373969D01*
X26420Y374052D01*
X26448Y374137D01*
X26473Y374222D01*
X26495Y374309D01*
X26512Y374397D01*
X26525Y374485D01*
X26535Y374574D01*
X26541Y374663D01*
X26543Y374752D01*
X26541Y374841D01*
X26535Y374930D01*
X26525Y375019D01*
X26512Y375107D01*
X26495Y375195D01*
X26473Y375282D01*
X26448Y375367D01*
X26420Y375452D01*
X26387Y375535D01*
X26351Y375617D01*
X26312Y375697D01*
X26269Y375775D01*
X26223Y375851D01*
X26173Y375926D01*
X26120Y375998D01*
X26064Y376067D01*
X26005Y376134D01*
X25944Y376199D01*
X25879Y376260D01*
X25812Y376319D01*
X25743Y376375D01*
X25671Y376428D01*
X25596Y376478D01*
X25520Y376524D01*
X25442Y376567D01*
X25362Y376606D01*
X25280Y376642D01*
X25197Y376675D01*
X25112Y376703D01*
X25027Y376728D01*
X24940Y376750D01*
X24852Y376767D01*
X24764Y376780D01*
X24675Y376790D01*
X24586Y376796D01*
X24497Y376798D01*
X21223Y376798D01*
X21134Y376796D01*
X21045Y376790D01*
X20956Y376780D01*
X20868Y376767D01*
X20780Y376750D01*
X20693Y376728D01*
X20608Y376703D01*
X20523Y376675D01*
X20440Y376642D01*
X20358Y376606D01*
X20278Y376567D01*
X20200Y376524D01*
X20124Y376478D01*
X20049Y376428D01*
X19977Y376375D01*
X19908Y376319D01*
X19841Y376260D01*
X19776Y376199D01*
X19715Y376134D01*
X19656Y376067D01*
X19600Y375998D01*
X19547Y375926D01*
X19497Y375851D01*
X19451Y375775D01*
X19408Y375697D01*
X19369Y375617D01*
X19333Y375535D01*
X19300Y375452D01*
X19272Y375367D01*
X19247Y375282D01*
X19225Y375195D01*
X19208Y375107D01*
X19195Y375019D01*
X19185Y374930D01*
X19179Y374841D01*
X19177Y374752D01*
X19179Y374663D01*
X19185Y374574D01*
X19195Y374485D01*
X19208Y374397D01*
X19225Y374309D01*
X19247Y374222D01*
X19272Y374137D01*
X19300Y374052D01*
X19333Y373969D01*
X19369Y373887D01*
X19408Y373807D01*
X19451Y373729D01*
X19497Y373653D01*
X19547Y373578D01*
X19600Y373506D01*
X19656Y373437D01*
X19715Y373370D01*
X19776Y373305D01*
X19841Y373244D01*
X19908Y373185D01*
X19977Y373129D01*
X20049Y373076D01*
X20124Y373026D01*
X20200Y372980D01*
X20278Y372937D01*
X20358Y372898D01*
X20440Y372862D01*
X20523Y372829D01*
X20608Y372801D01*
X20693Y372776D01*
X20780Y372754D01*
X20868Y372737D01*
X20956Y372724D01*
X21045Y372714D01*
X21134Y372708D01*
X21223Y372706D01*
X19177Y380343D02*
X26543Y380343D01*
X22451Y382798D01*
X26543Y385254D01*
X19177Y385254D01*
X19177Y306594D02*
X26543Y306594D01*
X19177Y310687D01*
X26543Y310687D01*
X24497Y314153D02*
X21223Y314153D01*
X24497Y314154D02*
X24586Y314156D01*
X24675Y314162D01*
X24764Y314172D01*
X24852Y314185D01*
X24940Y314202D01*
X25027Y314224D01*
X25112Y314249D01*
X25197Y314277D01*
X25280Y314310D01*
X25362Y314346D01*
X25442Y314385D01*
X25520Y314428D01*
X25596Y314474D01*
X25671Y314524D01*
X25743Y314577D01*
X25812Y314633D01*
X25879Y314692D01*
X25944Y314753D01*
X26005Y314818D01*
X26064Y314885D01*
X26120Y314954D01*
X26173Y315026D01*
X26223Y315101D01*
X26269Y315177D01*
X26312Y315255D01*
X26351Y315335D01*
X26387Y315417D01*
X26420Y315500D01*
X26448Y315585D01*
X26473Y315670D01*
X26495Y315757D01*
X26512Y315845D01*
X26525Y315933D01*
X26535Y316022D01*
X26541Y316111D01*
X26543Y316200D01*
X26541Y316289D01*
X26535Y316378D01*
X26525Y316467D01*
X26512Y316555D01*
X26495Y316643D01*
X26473Y316730D01*
X26448Y316815D01*
X26420Y316900D01*
X26387Y316983D01*
X26351Y317065D01*
X26312Y317145D01*
X26269Y317223D01*
X26223Y317299D01*
X26173Y317374D01*
X26120Y317446D01*
X26064Y317515D01*
X26005Y317582D01*
X25944Y317647D01*
X25879Y317708D01*
X25812Y317767D01*
X25743Y317823D01*
X25671Y317876D01*
X25596Y317926D01*
X25520Y317972D01*
X25442Y318015D01*
X25362Y318054D01*
X25280Y318090D01*
X25197Y318123D01*
X25112Y318151D01*
X25027Y318176D01*
X24940Y318198D01*
X24852Y318215D01*
X24764Y318228D01*
X24675Y318238D01*
X24586Y318244D01*
X24497Y318246D01*
X21223Y318246D01*
X21134Y318244D01*
X21045Y318238D01*
X20956Y318228D01*
X20868Y318215D01*
X20780Y318198D01*
X20693Y318176D01*
X20608Y318151D01*
X20523Y318123D01*
X20440Y318090D01*
X20358Y318054D01*
X20278Y318015D01*
X20200Y317972D01*
X20124Y317926D01*
X20049Y317876D01*
X19977Y317823D01*
X19908Y317767D01*
X19841Y317708D01*
X19776Y317647D01*
X19715Y317582D01*
X19656Y317515D01*
X19600Y317446D01*
X19547Y317374D01*
X19497Y317299D01*
X19451Y317223D01*
X19408Y317145D01*
X19369Y317065D01*
X19333Y316983D01*
X19300Y316900D01*
X19272Y316815D01*
X19247Y316730D01*
X19225Y316643D01*
X19208Y316555D01*
X19195Y316467D01*
X19185Y316378D01*
X19179Y316289D01*
X19177Y316200D01*
X19179Y316111D01*
X19185Y316022D01*
X19195Y315933D01*
X19208Y315845D01*
X19225Y315757D01*
X19247Y315670D01*
X19272Y315585D01*
X19300Y315500D01*
X19333Y315417D01*
X19369Y315335D01*
X19408Y315255D01*
X19451Y315177D01*
X19497Y315101D01*
X19547Y315026D01*
X19600Y314954D01*
X19656Y314885D01*
X19715Y314818D01*
X19776Y314753D01*
X19841Y314692D01*
X19908Y314633D01*
X19977Y314577D01*
X20049Y314524D01*
X20124Y314474D01*
X20200Y314428D01*
X20278Y314385D01*
X20358Y314346D01*
X20440Y314310D01*
X20523Y314277D01*
X20608Y314249D01*
X20693Y314224D01*
X20780Y314202D01*
X20868Y314185D01*
X20956Y314172D01*
X21045Y314162D01*
X21134Y314156D01*
X21223Y314154D01*
X19177Y253020D02*
X19177Y251383D01*
X19179Y251305D01*
X19184Y251227D01*
X19194Y251150D01*
X19207Y251073D01*
X19223Y250997D01*
X19243Y250922D01*
X19267Y250848D01*
X19294Y250775D01*
X19325Y250703D01*
X19359Y250633D01*
X19396Y250565D01*
X19437Y250498D01*
X19481Y250433D01*
X19527Y250371D01*
X19577Y250311D01*
X19629Y250253D01*
X19684Y250198D01*
X19742Y250146D01*
X19802Y250096D01*
X19864Y250050D01*
X19929Y250006D01*
X19995Y249965D01*
X20064Y249928D01*
X20134Y249894D01*
X20206Y249863D01*
X20279Y249836D01*
X20353Y249812D01*
X20428Y249792D01*
X20504Y249776D01*
X20581Y249763D01*
X20658Y249753D01*
X20736Y249748D01*
X20814Y249746D01*
X24906Y249746D01*
X24984Y249748D01*
X25062Y249753D01*
X25139Y249763D01*
X25216Y249776D01*
X25292Y249792D01*
X25367Y249812D01*
X25441Y249836D01*
X25514Y249863D01*
X25586Y249894D01*
X25656Y249928D01*
X25725Y249965D01*
X25791Y250006D01*
X25856Y250050D01*
X25918Y250096D01*
X25978Y250146D01*
X26036Y250198D01*
X26091Y250253D01*
X26143Y250311D01*
X26193Y250371D01*
X26239Y250433D01*
X26283Y250498D01*
X26324Y250565D01*
X26361Y250633D01*
X26395Y250703D01*
X26426Y250775D01*
X26453Y250848D01*
X26477Y250922D01*
X26497Y250997D01*
X26513Y251073D01*
X26526Y251150D01*
X26536Y251227D01*
X26541Y251305D01*
X26543Y251383D01*
X26543Y253020D01*
X24497Y255865D02*
X21223Y255865D01*
X24497Y255866D02*
X24586Y255868D01*
X24675Y255874D01*
X24764Y255884D01*
X24852Y255897D01*
X24940Y255914D01*
X25027Y255936D01*
X25112Y255961D01*
X25197Y255989D01*
X25280Y256022D01*
X25362Y256058D01*
X25442Y256097D01*
X25520Y256140D01*
X25596Y256186D01*
X25671Y256236D01*
X25743Y256289D01*
X25812Y256345D01*
X25879Y256404D01*
X25944Y256465D01*
X26005Y256530D01*
X26064Y256597D01*
X26120Y256666D01*
X26173Y256738D01*
X26223Y256813D01*
X26269Y256889D01*
X26312Y256967D01*
X26351Y257047D01*
X26387Y257129D01*
X26420Y257212D01*
X26448Y257297D01*
X26473Y257382D01*
X26495Y257469D01*
X26512Y257557D01*
X26525Y257645D01*
X26535Y257734D01*
X26541Y257823D01*
X26543Y257912D01*
X26541Y258001D01*
X26535Y258090D01*
X26525Y258179D01*
X26512Y258267D01*
X26495Y258355D01*
X26473Y258442D01*
X26448Y258527D01*
X26420Y258612D01*
X26387Y258695D01*
X26351Y258777D01*
X26312Y258857D01*
X26269Y258935D01*
X26223Y259011D01*
X26173Y259086D01*
X26120Y259158D01*
X26064Y259227D01*
X26005Y259294D01*
X25944Y259359D01*
X25879Y259420D01*
X25812Y259479D01*
X25743Y259535D01*
X25671Y259588D01*
X25596Y259638D01*
X25520Y259684D01*
X25442Y259727D01*
X25362Y259766D01*
X25280Y259802D01*
X25197Y259835D01*
X25112Y259863D01*
X25027Y259888D01*
X24940Y259910D01*
X24852Y259927D01*
X24764Y259940D01*
X24675Y259950D01*
X24586Y259956D01*
X24497Y259958D01*
X21223Y259958D01*
X21134Y259956D01*
X21045Y259950D01*
X20956Y259940D01*
X20868Y259927D01*
X20780Y259910D01*
X20693Y259888D01*
X20608Y259863D01*
X20523Y259835D01*
X20440Y259802D01*
X20358Y259766D01*
X20278Y259727D01*
X20200Y259684D01*
X20124Y259638D01*
X20049Y259588D01*
X19977Y259535D01*
X19908Y259479D01*
X19841Y259420D01*
X19776Y259359D01*
X19715Y259294D01*
X19656Y259227D01*
X19600Y259158D01*
X19547Y259086D01*
X19497Y259011D01*
X19451Y258935D01*
X19408Y258857D01*
X19369Y258777D01*
X19333Y258695D01*
X19300Y258612D01*
X19272Y258527D01*
X19247Y258442D01*
X19225Y258355D01*
X19208Y258267D01*
X19195Y258179D01*
X19185Y258090D01*
X19179Y258001D01*
X19177Y257912D01*
X19179Y257823D01*
X19185Y257734D01*
X19195Y257645D01*
X19208Y257557D01*
X19225Y257469D01*
X19247Y257382D01*
X19272Y257297D01*
X19300Y257212D01*
X19333Y257129D01*
X19369Y257047D01*
X19408Y256967D01*
X19451Y256889D01*
X19497Y256813D01*
X19547Y256738D01*
X19600Y256666D01*
X19656Y256597D01*
X19715Y256530D01*
X19776Y256465D01*
X19841Y256404D01*
X19908Y256345D01*
X19977Y256289D01*
X20049Y256236D01*
X20124Y256186D01*
X20200Y256140D01*
X20278Y256097D01*
X20358Y256058D01*
X20440Y256022D01*
X20523Y255989D01*
X20608Y255961D01*
X20693Y255936D01*
X20780Y255914D01*
X20868Y255897D01*
X20956Y255884D01*
X21045Y255874D01*
X21134Y255868D01*
X21223Y255866D01*
X19177Y263503D02*
X26543Y263503D01*
X22451Y265958D01*
X26543Y268414D01*
X19177Y268414D01*
M02*
