G04 EAGLE Gerber RS-274X export*
G75*
%MOMM*%
%FSLAX34Y34*%
%LPD*%
%INSolderpaste Top*%
%IPPOS*%
%AMOC8*
5,1,8,0,0,1.08239X$1,22.5*%
G01*
%ADD10R,2.900000X5.400000*%
%ADD11R,2.350000X1.550000*%
%ADD12R,1.470000X1.020000*%
%ADD13R,1.450000X1.150000*%
%ADD14R,4.100000X2.000000*%
%ADD15R,1.020000X2.160000*%
%ADD16R,8.330000X6.990000*%
%ADD17R,1.235000X1.910000*%
%ADD18R,0.500000X1.000000*%
%ADD19R,0.900000X1.400000*%
%ADD20R,0.650000X0.900000*%
%ADD21R,1.700000X2.550000*%
%ADD22R,2.550000X1.700000*%
%ADD23R,0.950000X1.250000*%
%ADD24R,3.200000X1.250000*%
%ADD25R,0.990000X0.780000*%
%ADD26R,1.000000X1.100000*%
%ADD27R,2.000000X0.900000*%
%ADD28R,0.900000X2.000000*%
%ADD29R,1.330000X1.330000*%
%ADD30R,0.950000X0.900000*%
%ADD31R,0.900000X0.650000*%
%ADD32R,1.400000X0.900000*%
%ADD33R,0.800000X0.900000*%
%ADD34R,0.940000X0.800000*%
%ADD35R,1.526000X0.435000*%
%ADD36R,0.600000X1.140000*%
%ADD37R,0.300000X1.140000*%
%ADD38R,1.820000X1.610000*%
%ADD39R,2.100000X1.400000*%


D10*
X567720Y924560D03*
X666720Y924560D03*
D11*
X626200Y840740D03*
X669200Y840740D03*
D12*
X802640Y827560D03*
X802640Y843760D03*
D13*
X820420Y826660D03*
X820420Y844660D03*
D14*
X868360Y797560D03*
X955360Y797560D03*
D15*
X705140Y843130D03*
X722140Y843130D03*
X739140Y843130D03*
X756140Y843130D03*
X773140Y843130D03*
D16*
X739140Y949880D03*
D17*
X786965Y975280D03*
X691315Y975280D03*
D18*
X356720Y619920D03*
X369720Y619920D03*
X363220Y639920D03*
D19*
X401980Y655320D03*
X420980Y655320D03*
D20*
X439790Y655320D03*
X454290Y655320D03*
D21*
X327660Y646380D03*
X327660Y608380D03*
D20*
X355970Y607060D03*
X370470Y607060D03*
D18*
X356720Y574200D03*
X369720Y574200D03*
X363220Y594200D03*
D19*
X401980Y629920D03*
X420980Y629920D03*
D20*
X439790Y629920D03*
X454290Y629920D03*
D21*
X327660Y577800D03*
X327660Y539800D03*
D20*
X355970Y561340D03*
X370470Y561340D03*
D18*
X356720Y665640D03*
X369720Y665640D03*
X363220Y685640D03*
D19*
X401980Y680720D03*
X420980Y680720D03*
D20*
X439790Y680720D03*
X454290Y680720D03*
D22*
X450900Y713740D03*
X488900Y713740D03*
D20*
X355970Y652780D03*
X370470Y652780D03*
D18*
X356720Y528480D03*
X369720Y528480D03*
X363220Y548480D03*
D19*
X401980Y604520D03*
X420980Y604520D03*
D20*
X439790Y604520D03*
X454290Y604520D03*
D21*
X327660Y506680D03*
X327660Y468680D03*
D20*
X355970Y515620D03*
X370470Y515620D03*
D18*
X356720Y482760D03*
X369720Y482760D03*
X363220Y502760D03*
D19*
X401980Y579120D03*
X420980Y579120D03*
D20*
X439790Y579120D03*
X454290Y579120D03*
D21*
X327660Y397560D03*
X327660Y435560D03*
D20*
X355970Y469900D03*
X370470Y469900D03*
D23*
X401180Y344460D03*
X424180Y344460D03*
X447180Y344460D03*
D24*
X424180Y412460D03*
D25*
X467360Y379080D03*
X467360Y393080D03*
X381000Y379080D03*
X381000Y393080D03*
D26*
X579120Y674760D03*
X579120Y691760D03*
D27*
X649060Y646960D03*
X649060Y634260D03*
X649060Y621560D03*
X649060Y608860D03*
X649060Y596160D03*
X649060Y583460D03*
X649060Y570760D03*
X649060Y558060D03*
X649060Y545360D03*
X649060Y532660D03*
X649060Y519960D03*
X649060Y507260D03*
X649060Y494560D03*
X649060Y481860D03*
D28*
X676910Y471860D03*
X689610Y471860D03*
X702310Y471860D03*
X715010Y471860D03*
X727710Y471860D03*
X740410Y471860D03*
X753110Y471860D03*
X765810Y471860D03*
X778510Y471860D03*
X791210Y471860D03*
D27*
X819060Y481860D03*
X819060Y494560D03*
X819060Y507260D03*
X819060Y519960D03*
X819060Y532660D03*
X819060Y545360D03*
X819060Y558060D03*
X819060Y570760D03*
X819060Y583460D03*
X819060Y596160D03*
X819060Y608860D03*
X819060Y621560D03*
X819060Y634260D03*
X819060Y646960D03*
D29*
X705710Y590310D03*
X724060Y590310D03*
X742410Y590310D03*
X705710Y571960D03*
X724060Y571960D03*
X742410Y571960D03*
X705710Y553610D03*
X724060Y553610D03*
X742410Y553610D03*
D30*
X617220Y259460D03*
X617220Y243460D03*
X716280Y277240D03*
X716280Y261240D03*
X670560Y277240D03*
X670560Y261240D03*
D31*
X680720Y233310D03*
X680720Y218810D03*
D32*
X680720Y175920D03*
X680720Y194920D03*
D33*
X649580Y276700D03*
X630580Y276700D03*
X640080Y256700D03*
X702920Y276700D03*
X683920Y276700D03*
X693420Y256700D03*
D34*
X822960Y306420D03*
X822960Y293020D03*
X810260Y306420D03*
X810260Y293020D03*
D35*
X712920Y314320D03*
X712920Y320680D03*
X712920Y327020D03*
X712920Y333380D03*
X712920Y339720D03*
X712920Y346080D03*
X712920Y352420D03*
X712920Y358780D03*
X712920Y365120D03*
X712920Y371480D03*
X658680Y371480D03*
X658680Y365120D03*
X658680Y358780D03*
X658680Y352420D03*
X658680Y346080D03*
X658680Y339720D03*
X658680Y333380D03*
X658680Y327020D03*
X658680Y320680D03*
X658680Y314320D03*
D31*
X655320Y233310D03*
X655320Y218810D03*
X629920Y233310D03*
X629920Y218810D03*
D32*
X655320Y175920D03*
X655320Y194920D03*
X629920Y175920D03*
X629920Y194920D03*
D34*
X637540Y356520D03*
X637540Y369920D03*
X756920Y257460D03*
X756920Y270860D03*
X792480Y257460D03*
X792480Y270860D03*
D36*
X712220Y227840D03*
X720220Y227840D03*
D37*
X741720Y227840D03*
X736720Y227840D03*
X731720Y227840D03*
X726720Y227840D03*
X746720Y227840D03*
X751720Y227840D03*
X756720Y227840D03*
X761720Y227840D03*
D36*
X768220Y227840D03*
X776220Y227840D03*
D38*
X774700Y258780D03*
X774700Y284780D03*
D34*
X774700Y315880D03*
X774700Y329280D03*
D39*
X815560Y263800D03*
X906560Y263800D03*
X815560Y218800D03*
X906560Y218800D03*
M02*
