G04 EAGLE Gerber RS-274X export*
G75*
%MOMM*%
%FSLAX34Y34*%
%LPD*%
%INSoldermask Top*%
%IPPOS*%
%AMOC8*
5,1,8,0,0,1.08239X$1,22.5*%
G01*
%ADD10R,2.133600X2.133600*%
%ADD11C,3.203200*%
%ADD12C,1.711200*%
%ADD13R,2.153200X2.153200*%
%ADD14C,2.153200*%
%ADD15R,3.103200X5.603200*%
%ADD16R,1.511200X1.511200*%
%ADD17C,1.511200*%
%ADD18R,2.553200X1.753200*%
%ADD19R,1.673200X1.223200*%
%ADD20R,1.653200X1.353200*%
%ADD21R,4.303200X2.203200*%
%ADD22C,6.203200*%
%ADD23R,1.223200X2.363200*%
%ADD24R,8.533200X7.193200*%
%ADD25R,1.438200X2.113200*%
%ADD26R,0.703200X1.203200*%
%ADD27R,1.103200X1.603200*%
%ADD28R,0.853200X1.103200*%
%ADD29R,1.903200X2.753200*%
%ADD30R,2.753200X1.903200*%
%ADD31P,1.869504X8X292.500000*%
%ADD32R,1.727200X1.727200*%
%ADD33C,1.727200*%
%ADD34P,1.869504X8X22.500000*%
%ADD35R,2.678200X2.678200*%
%ADD36C,2.678200*%
%ADD37R,1.153200X1.453200*%
%ADD38R,3.403200X1.453200*%
%ADD39R,1.193200X0.983200*%
%ADD40R,2.528200X2.528200*%
%ADD41C,2.528200*%
%ADD42C,1.625600*%


D10*
X858520Y292100D03*
X858520Y317500D03*
X858520Y342900D03*
X858520Y368300D03*
X858520Y393700D03*
X858520Y419100D03*
X858520Y444500D03*
X858520Y469900D03*
X858520Y495300D03*
X858520Y520700D03*
X858520Y546100D03*
X858520Y571500D03*
X858520Y596900D03*
X858520Y622300D03*
X858520Y647700D03*
X604520Y292100D03*
X604520Y317500D03*
X604520Y342900D03*
X604520Y368300D03*
X604520Y393700D03*
X604520Y419100D03*
X604520Y444500D03*
X604520Y469900D03*
X604520Y495300D03*
X604520Y520700D03*
X604520Y546100D03*
X604520Y571500D03*
X604520Y596900D03*
X604520Y622300D03*
X604520Y647700D03*
D11*
X391160Y830480D03*
X239160Y741480D03*
X214160Y919480D03*
X138160Y919480D03*
D12*
X366160Y779480D03*
X366160Y881480D03*
D13*
X264160Y662940D03*
D14*
X142160Y662940D03*
X142160Y542940D03*
X264160Y542940D03*
X284160Y602940D03*
D12*
X129540Y347980D03*
X205740Y347980D03*
X307340Y347980D03*
X332740Y347980D03*
D15*
X567720Y924560D03*
X666720Y924560D03*
D16*
X472440Y937260D03*
D17*
X507440Y937260D03*
D18*
X626200Y840740D03*
X669200Y840740D03*
D19*
X802640Y827560D03*
X802640Y843760D03*
D20*
X820420Y826660D03*
X820420Y844660D03*
D21*
X868360Y797560D03*
X955360Y797560D03*
D22*
X40640Y957580D03*
X949960Y957580D03*
X949960Y200660D03*
X40640Y200660D03*
D23*
X705140Y843130D03*
X722140Y843130D03*
X739140Y843130D03*
X756140Y843130D03*
X773140Y843130D03*
D24*
X739140Y949880D03*
D25*
X786965Y975280D03*
X691315Y975280D03*
D26*
X356720Y619920D03*
X369720Y619920D03*
X363220Y639920D03*
D27*
X401980Y655320D03*
X420980Y655320D03*
D28*
X439790Y655320D03*
X454290Y655320D03*
D29*
X327660Y646380D03*
X327660Y608380D03*
D28*
X355970Y607060D03*
X370470Y607060D03*
D13*
X264160Y502920D03*
D14*
X142160Y502920D03*
X142160Y382920D03*
X264160Y382920D03*
X284160Y442920D03*
D26*
X356720Y574200D03*
X369720Y574200D03*
X363220Y594200D03*
D27*
X401980Y629920D03*
X420980Y629920D03*
D28*
X439790Y629920D03*
X454290Y629920D03*
D29*
X327660Y577800D03*
X327660Y539800D03*
D28*
X355970Y561340D03*
X370470Y561340D03*
D26*
X356720Y665640D03*
X369720Y665640D03*
X363220Y685640D03*
D27*
X401980Y680720D03*
X420980Y680720D03*
D28*
X439790Y680720D03*
X454290Y680720D03*
D30*
X450900Y713740D03*
X488900Y713740D03*
D28*
X355970Y652780D03*
X370470Y652780D03*
D26*
X356720Y528480D03*
X369720Y528480D03*
X363220Y548480D03*
D27*
X401980Y604520D03*
X420980Y604520D03*
D28*
X439790Y604520D03*
X454290Y604520D03*
D29*
X327660Y506680D03*
X327660Y468680D03*
D28*
X355970Y515620D03*
X370470Y515620D03*
D12*
X129540Y289560D03*
X205740Y289560D03*
X307340Y289560D03*
X332740Y289560D03*
D26*
X356720Y482760D03*
X369720Y482760D03*
X363220Y502760D03*
D27*
X401980Y579120D03*
X420980Y579120D03*
D28*
X439790Y579120D03*
X454290Y579120D03*
D29*
X327660Y397560D03*
X327660Y435560D03*
D28*
X355970Y469900D03*
X370470Y469900D03*
D31*
X414020Y541020D03*
X439420Y541020D03*
X414020Y515620D03*
X439420Y515620D03*
X414020Y490220D03*
X439420Y490220D03*
X414020Y464820D03*
X439420Y464820D03*
X414020Y439420D03*
X439420Y439420D03*
D32*
X909320Y292100D03*
X909320Y317500D03*
X909320Y342900D03*
X909320Y368300D03*
X909320Y393700D03*
X909320Y419100D03*
X909320Y444500D03*
X909320Y469900D03*
X909320Y495300D03*
X909320Y520700D03*
X909320Y546100D03*
X909320Y571500D03*
X909320Y596900D03*
X909320Y622300D03*
X909320Y647700D03*
X553720Y292100D03*
X553720Y317500D03*
X553720Y342900D03*
X553720Y368300D03*
X553720Y393700D03*
X553720Y419100D03*
X553720Y444500D03*
X553720Y469900D03*
X553720Y495300D03*
X553720Y520700D03*
X553720Y546100D03*
X553720Y571500D03*
X553720Y596900D03*
X553720Y622300D03*
X553720Y647700D03*
X528320Y647700D03*
X528320Y622300D03*
X528320Y596900D03*
X528320Y571500D03*
X528320Y546100D03*
X528320Y520700D03*
X528320Y495300D03*
X528320Y469900D03*
X528320Y444500D03*
X528320Y419100D03*
X528320Y393700D03*
X528320Y368300D03*
X528320Y342900D03*
X528320Y317500D03*
X528320Y292100D03*
X934720Y292100D03*
X934720Y317500D03*
X934720Y342900D03*
X934720Y368300D03*
X934720Y393700D03*
X934720Y419100D03*
X934720Y444500D03*
X934720Y469900D03*
X934720Y495300D03*
X934720Y520700D03*
X934720Y546100D03*
X934720Y571500D03*
X934720Y596900D03*
X934720Y622300D03*
X934720Y647700D03*
X962660Y647700D03*
X962660Y622300D03*
X962660Y596900D03*
X962660Y571500D03*
X962660Y546100D03*
X962660Y520700D03*
X962660Y495300D03*
X962660Y469900D03*
X962660Y444500D03*
X962660Y419100D03*
X962660Y393700D03*
X962660Y368300D03*
X962660Y342900D03*
X962660Y317500D03*
X962660Y292100D03*
X502920Y647700D03*
X502920Y622300D03*
X502920Y596900D03*
X502920Y571500D03*
X502920Y546100D03*
X502920Y520700D03*
X502920Y495300D03*
X502920Y469900D03*
X502920Y444500D03*
X502920Y419100D03*
X502920Y393700D03*
X502920Y368300D03*
X502920Y342900D03*
X502920Y317500D03*
X502920Y292100D03*
D33*
X447040Y287020D02*
X447040Y302260D01*
X421640Y302260D02*
X421640Y287020D01*
X396240Y287020D02*
X396240Y302260D01*
D34*
X378460Y184150D03*
X378460Y209550D03*
X403860Y184150D03*
X403860Y209550D03*
X429260Y184150D03*
X429260Y209550D03*
X454660Y184150D03*
X454660Y209550D03*
X485140Y180340D03*
X485140Y205740D03*
X510540Y180340D03*
X510540Y205740D03*
X535940Y180340D03*
X535940Y205740D03*
X561340Y180340D03*
X561340Y205740D03*
X472440Y812800D03*
X472440Y838200D03*
X497840Y812800D03*
X497840Y838200D03*
X523240Y812800D03*
X523240Y838200D03*
X548640Y812800D03*
X548640Y838200D03*
D35*
X873760Y899160D03*
D36*
X822960Y899160D03*
D32*
X883920Y292100D03*
X883920Y317500D03*
X883920Y342900D03*
X883920Y368300D03*
X883920Y393700D03*
X883920Y419100D03*
X883920Y444500D03*
X883920Y469900D03*
X883920Y495300D03*
X883920Y520700D03*
X883920Y546100D03*
X883920Y571500D03*
X883920Y596900D03*
X883920Y622300D03*
X883920Y647700D03*
X579120Y292100D03*
X579120Y317500D03*
X579120Y342900D03*
X579120Y368300D03*
X579120Y393700D03*
X579120Y419100D03*
X579120Y444500D03*
X579120Y469900D03*
X579120Y495300D03*
X579120Y520700D03*
X579120Y546100D03*
X579120Y571500D03*
X579120Y596900D03*
X579120Y622300D03*
X579120Y647700D03*
X629920Y292100D03*
X629920Y317500D03*
X629920Y342900D03*
X629920Y368300D03*
X629920Y393700D03*
X629920Y419100D03*
X629920Y444500D03*
X629920Y469900D03*
X629920Y495300D03*
X629920Y520700D03*
X629920Y546100D03*
X629920Y571500D03*
X629920Y596900D03*
X629920Y622300D03*
X629920Y647700D03*
D34*
X472440Y746760D03*
X472440Y772160D03*
X497840Y746760D03*
X497840Y772160D03*
X523240Y746760D03*
X523240Y772160D03*
X548640Y746760D03*
X548640Y772160D03*
D37*
X401180Y344460D03*
X424180Y344460D03*
X447180Y344460D03*
D38*
X424180Y412460D03*
D39*
X467360Y379080D03*
X467360Y393080D03*
X381000Y379080D03*
X381000Y393080D03*
D40*
X53340Y795020D03*
D41*
X53340Y845820D03*
X53340Y896620D03*
D40*
X53340Y640080D03*
D41*
X53340Y690880D03*
X53340Y741680D03*
D40*
X53340Y485140D03*
D41*
X53340Y535940D03*
X53340Y586740D03*
D13*
X53340Y373380D03*
D14*
X53340Y424180D03*
D13*
X53340Y261620D03*
D14*
X53340Y312420D03*
D42*
X683260Y752348D02*
X683260Y766572D01*
X657860Y766572D02*
X657860Y752348D01*
M02*
