G04 EAGLE Gerber RS-274X export*
G75*
%MOMM*%
%FSLAX34Y34*%
%LPD*%
%INSoldermask Bottom*%
%IPPOS*%
%AMOC8*
5,1,8,0,0,1.08239X$1,22.5*%
G01*
%ADD10C,2.000000*%
%ADD11R,2.133600X2.133600*%
%ADD12C,3.203200*%
%ADD13C,1.711200*%
%ADD14R,2.153200X2.153200*%
%ADD15C,2.153200*%
%ADD16R,1.511200X1.511200*%
%ADD17C,1.511200*%
%ADD18C,6.203200*%
%ADD19P,1.869504X8X292.500000*%
%ADD20R,1.727200X1.727200*%
%ADD21C,1.727200*%
%ADD22P,1.869504X8X22.500000*%
%ADD23R,2.678200X2.678200*%
%ADD24C,2.678200*%
%ADD25R,2.528200X2.528200*%
%ADD26C,2.528200*%
%ADD27C,0.911200*%
%ADD28C,0.803200*%
%ADD29C,1.625600*%

G36*
X788588Y211616D02*
X788588Y211616D01*
X788594Y211622D01*
X788599Y211619D01*
X789656Y211989D01*
X789660Y211996D01*
X789666Y211993D01*
X790614Y212589D01*
X790617Y212597D01*
X790622Y212596D01*
X791414Y213388D01*
X791415Y213396D01*
X791421Y213396D01*
X792017Y214344D01*
X792016Y214353D01*
X792021Y214354D01*
X792391Y215411D01*
X792390Y215415D01*
X792392Y215417D01*
X792390Y215420D01*
X792394Y215422D01*
X792519Y216535D01*
X792517Y216538D01*
X792519Y216540D01*
X792519Y227540D01*
X792517Y227543D01*
X792519Y227546D01*
X792394Y228658D01*
X792388Y228664D01*
X792391Y228669D01*
X792021Y229726D01*
X792015Y229730D01*
X792017Y229736D01*
X791421Y230684D01*
X791413Y230687D01*
X791414Y230692D01*
X790622Y231484D01*
X790614Y231485D01*
X790614Y231491D01*
X789666Y232087D01*
X789657Y232086D01*
X789656Y232091D01*
X788599Y232461D01*
X788591Y232459D01*
X788588Y232464D01*
X787476Y232589D01*
X787469Y232585D01*
X787465Y232589D01*
X786362Y232476D01*
X786357Y232471D01*
X786355Y232471D01*
X786352Y232474D01*
X785302Y232118D01*
X785297Y232111D01*
X785292Y232113D01*
X784347Y231533D01*
X784344Y231526D01*
X784338Y231526D01*
X783547Y230751D01*
X783545Y230742D01*
X783540Y230742D01*
X782940Y229809D01*
X782941Y229801D01*
X782936Y229800D01*
X782559Y228757D01*
X782561Y228749D01*
X782556Y228746D01*
X782421Y227646D01*
X782423Y227642D01*
X782421Y227640D01*
X782421Y216640D01*
X782423Y216637D01*
X782421Y216635D01*
X782537Y215510D01*
X782542Y215504D01*
X782539Y215499D01*
X782902Y214428D01*
X782909Y214424D01*
X782906Y214418D01*
X783499Y213455D01*
X783506Y213452D01*
X783505Y213446D01*
X784297Y212638D01*
X784305Y212637D01*
X784306Y212632D01*
X785257Y212020D01*
X785265Y212021D01*
X785267Y212016D01*
X786331Y211631D01*
X786339Y211634D01*
X786342Y211629D01*
X787464Y211491D01*
X787471Y211495D01*
X787476Y211491D01*
X788588Y211616D01*
G37*
G36*
X702088Y211616D02*
X702088Y211616D01*
X702094Y211622D01*
X702099Y211619D01*
X703156Y211989D01*
X703160Y211996D01*
X703166Y211993D01*
X704114Y212589D01*
X704117Y212597D01*
X704122Y212596D01*
X704914Y213388D01*
X704915Y213396D01*
X704921Y213396D01*
X705517Y214344D01*
X705516Y214353D01*
X705521Y214354D01*
X705891Y215411D01*
X705890Y215415D01*
X705892Y215417D01*
X705890Y215420D01*
X705894Y215422D01*
X706019Y216535D01*
X706017Y216538D01*
X706019Y216540D01*
X706019Y227540D01*
X706017Y227543D01*
X706019Y227546D01*
X705894Y228658D01*
X705888Y228664D01*
X705891Y228669D01*
X705521Y229726D01*
X705515Y229730D01*
X705517Y229736D01*
X704921Y230684D01*
X704913Y230687D01*
X704914Y230692D01*
X704122Y231484D01*
X704114Y231485D01*
X704114Y231491D01*
X703166Y232087D01*
X703157Y232086D01*
X703156Y232091D01*
X702099Y232461D01*
X702091Y232459D01*
X702088Y232464D01*
X700976Y232589D01*
X700968Y232585D01*
X700965Y232589D01*
X699852Y232464D01*
X699846Y232458D01*
X699841Y232461D01*
X698784Y232091D01*
X698780Y232085D01*
X698774Y232087D01*
X697826Y231491D01*
X697823Y231483D01*
X697818Y231484D01*
X697026Y230692D01*
X697025Y230684D01*
X697019Y230684D01*
X696423Y229736D01*
X696424Y229729D01*
X696420Y229727D01*
X696420Y229726D01*
X696419Y229726D01*
X696049Y228669D01*
X696051Y228661D01*
X696046Y228658D01*
X695921Y227546D01*
X695923Y227542D01*
X695921Y227540D01*
X695921Y216540D01*
X695923Y216537D01*
X695921Y216535D01*
X696046Y215422D01*
X696052Y215416D01*
X696049Y215411D01*
X696419Y214354D01*
X696426Y214350D01*
X696423Y214344D01*
X697019Y213396D01*
X697027Y213393D01*
X697026Y213388D01*
X697818Y212596D01*
X697826Y212595D01*
X697826Y212589D01*
X698774Y211993D01*
X698783Y211994D01*
X698784Y211989D01*
X699841Y211619D01*
X699849Y211621D01*
X699852Y211616D01*
X700965Y211491D01*
X700972Y211495D01*
X700976Y211491D01*
X702088Y211616D01*
G37*
G36*
X702088Y171416D02*
X702088Y171416D01*
X702094Y171422D01*
X702099Y171419D01*
X703156Y171789D01*
X703160Y171796D01*
X703166Y171793D01*
X704114Y172389D01*
X704117Y172397D01*
X704122Y172396D01*
X704914Y173188D01*
X704915Y173196D01*
X704921Y173196D01*
X705517Y174144D01*
X705516Y174153D01*
X705521Y174154D01*
X705891Y175211D01*
X705890Y175215D01*
X705892Y175217D01*
X705890Y175220D01*
X705894Y175222D01*
X706019Y176335D01*
X706017Y176338D01*
X706019Y176340D01*
X706019Y184340D01*
X706017Y184343D01*
X706019Y184346D01*
X705894Y185458D01*
X705888Y185464D01*
X705891Y185469D01*
X705521Y186526D01*
X705515Y186530D01*
X705517Y186536D01*
X704921Y187484D01*
X704913Y187487D01*
X704914Y187492D01*
X704122Y188284D01*
X704114Y188285D01*
X704114Y188291D01*
X703166Y188887D01*
X703157Y188886D01*
X703156Y188891D01*
X702099Y189261D01*
X702091Y189259D01*
X702088Y189264D01*
X700976Y189389D01*
X700968Y189385D01*
X700965Y189389D01*
X699852Y189264D01*
X699846Y189258D01*
X699841Y189261D01*
X698784Y188891D01*
X698780Y188885D01*
X698774Y188887D01*
X697826Y188291D01*
X697823Y188283D01*
X697818Y188284D01*
X697026Y187492D01*
X697025Y187484D01*
X697019Y187484D01*
X696423Y186536D01*
X696424Y186527D01*
X696419Y186526D01*
X696049Y185469D01*
X696051Y185461D01*
X696046Y185458D01*
X695921Y184346D01*
X695923Y184342D01*
X695921Y184340D01*
X695921Y176340D01*
X695923Y176337D01*
X695921Y176335D01*
X696046Y175222D01*
X696052Y175216D01*
X696049Y175211D01*
X696419Y174154D01*
X696426Y174150D01*
X696423Y174144D01*
X697019Y173196D01*
X697027Y173193D01*
X697026Y173188D01*
X697818Y172396D01*
X697826Y172395D01*
X697826Y172389D01*
X698774Y171793D01*
X698783Y171794D01*
X698784Y171789D01*
X699841Y171419D01*
X699849Y171421D01*
X699852Y171416D01*
X700965Y171291D01*
X700972Y171295D01*
X700976Y171291D01*
X702088Y171416D01*
G37*
G36*
X788588Y171416D02*
X788588Y171416D01*
X788594Y171422D01*
X788599Y171419D01*
X789656Y171789D01*
X789660Y171796D01*
X789666Y171793D01*
X790614Y172389D01*
X790617Y172397D01*
X790622Y172396D01*
X791414Y173188D01*
X791415Y173196D01*
X791421Y173196D01*
X792017Y174144D01*
X792016Y174153D01*
X792021Y174154D01*
X792391Y175211D01*
X792390Y175215D01*
X792392Y175217D01*
X792390Y175220D01*
X792394Y175222D01*
X792519Y176335D01*
X792517Y176338D01*
X792519Y176340D01*
X792519Y184340D01*
X792517Y184343D01*
X792519Y184346D01*
X792394Y185458D01*
X792388Y185464D01*
X792391Y185469D01*
X792021Y186526D01*
X792015Y186530D01*
X792017Y186536D01*
X791421Y187484D01*
X791413Y187487D01*
X791414Y187492D01*
X790622Y188284D01*
X790614Y188285D01*
X790614Y188291D01*
X789666Y188887D01*
X789657Y188886D01*
X789656Y188891D01*
X788599Y189261D01*
X788591Y189259D01*
X788588Y189264D01*
X787476Y189389D01*
X787468Y189385D01*
X787465Y189389D01*
X786352Y189264D01*
X786346Y189258D01*
X786341Y189261D01*
X785284Y188891D01*
X785280Y188885D01*
X785274Y188887D01*
X784326Y188291D01*
X784323Y188283D01*
X784318Y188284D01*
X783526Y187492D01*
X783525Y187484D01*
X783519Y187484D01*
X782923Y186536D01*
X782924Y186527D01*
X782919Y186526D01*
X782549Y185469D01*
X782551Y185461D01*
X782546Y185458D01*
X782421Y184346D01*
X782423Y184342D01*
X782421Y184340D01*
X782421Y176340D01*
X782423Y176337D01*
X782421Y176335D01*
X782546Y175222D01*
X782552Y175216D01*
X782549Y175211D01*
X782919Y174154D01*
X782926Y174150D01*
X782923Y174144D01*
X783519Y173196D01*
X783527Y173193D01*
X783526Y173188D01*
X784318Y172396D01*
X784326Y172395D01*
X784326Y172389D01*
X785274Y171793D01*
X785283Y171794D01*
X785284Y171789D01*
X786341Y171419D01*
X786349Y171421D01*
X786352Y171416D01*
X787465Y171291D01*
X787472Y171295D01*
X787476Y171291D01*
X788588Y171416D01*
G37*
D10*
X99060Y914400D02*
X99060Y955040D01*
X214160Y956780D02*
X214160Y919480D01*
X214160Y956780D02*
X200660Y970280D01*
X114300Y970280D01*
X99060Y955040D01*
X99060Y914400D02*
X81280Y896620D01*
X53340Y896620D01*
X53340Y845820D02*
X215900Y845820D01*
X239160Y822560D01*
X239160Y820820D02*
X239160Y741480D01*
X239160Y820820D02*
X251460Y833120D01*
X239160Y822560D02*
X239160Y820820D01*
X251460Y833120D02*
X388520Y833120D01*
X124460Y741680D02*
X53340Y741680D01*
X124460Y741680D02*
X142160Y723980D01*
X142160Y662940D01*
X91440Y690880D02*
X53340Y690880D01*
X91440Y690880D02*
X104140Y678180D01*
X104140Y632460D01*
X133660Y602940D01*
X284160Y602940D01*
X142160Y551260D02*
X53340Y640080D01*
X142160Y551260D02*
X142160Y542940D01*
X137160Y502920D02*
X53340Y586740D01*
X137160Y502920D02*
X142160Y502920D01*
X146360Y442920D02*
X53340Y535940D01*
X146360Y442920D02*
X284160Y442920D01*
X142160Y396320D02*
X53340Y485140D01*
X142160Y396320D02*
X142160Y382920D01*
X96520Y398780D02*
X71120Y424180D01*
X96520Y398780D02*
X96520Y335280D01*
X111760Y320040D02*
X193040Y320040D01*
X111760Y320040D02*
X96520Y335280D01*
X193040Y320040D02*
X205740Y332740D01*
X205740Y347980D01*
X71120Y424180D02*
X53340Y424180D01*
D11*
X858520Y292100D03*
X858520Y317500D03*
X858520Y342900D03*
X858520Y368300D03*
X858520Y393700D03*
X858520Y419100D03*
X858520Y444500D03*
X858520Y469900D03*
X858520Y495300D03*
X858520Y520700D03*
X858520Y546100D03*
X858520Y571500D03*
X858520Y596900D03*
X858520Y622300D03*
X858520Y647700D03*
X604520Y292100D03*
X604520Y317500D03*
X604520Y342900D03*
X604520Y368300D03*
X604520Y393700D03*
X604520Y419100D03*
X604520Y444500D03*
X604520Y469900D03*
X604520Y495300D03*
X604520Y520700D03*
X604520Y546100D03*
X604520Y571500D03*
X604520Y596900D03*
X604520Y622300D03*
X604520Y647700D03*
D12*
X391160Y830480D03*
X239160Y741480D03*
X214160Y919480D03*
X138160Y919480D03*
D13*
X366160Y779480D03*
X366160Y881480D03*
D14*
X264160Y662940D03*
D15*
X142160Y662940D03*
X142160Y542940D03*
X264160Y542940D03*
X284160Y602940D03*
D13*
X129540Y347980D03*
X205740Y347980D03*
X307340Y347980D03*
X332740Y347980D03*
D16*
X472440Y937260D03*
D17*
X507440Y937260D03*
D18*
X40640Y957580D03*
X949960Y957580D03*
X949960Y200660D03*
X40640Y200660D03*
D14*
X264160Y502920D03*
D15*
X142160Y502920D03*
X142160Y382920D03*
X264160Y382920D03*
X284160Y442920D03*
D13*
X129540Y289560D03*
X205740Y289560D03*
X307340Y289560D03*
X332740Y289560D03*
D19*
X414020Y541020D03*
X439420Y541020D03*
X414020Y515620D03*
X439420Y515620D03*
X414020Y490220D03*
X439420Y490220D03*
X414020Y464820D03*
X439420Y464820D03*
X414020Y439420D03*
X439420Y439420D03*
D20*
X909320Y292100D03*
X909320Y317500D03*
X909320Y342900D03*
X909320Y368300D03*
X909320Y393700D03*
X909320Y419100D03*
X909320Y444500D03*
X909320Y469900D03*
X909320Y495300D03*
X909320Y520700D03*
X909320Y546100D03*
X909320Y571500D03*
X909320Y596900D03*
X909320Y622300D03*
X909320Y647700D03*
X553720Y292100D03*
X553720Y317500D03*
X553720Y342900D03*
X553720Y368300D03*
X553720Y393700D03*
X553720Y419100D03*
X553720Y444500D03*
X553720Y469900D03*
X553720Y495300D03*
X553720Y520700D03*
X553720Y546100D03*
X553720Y571500D03*
X553720Y596900D03*
X553720Y622300D03*
X553720Y647700D03*
X528320Y647700D03*
X528320Y622300D03*
X528320Y596900D03*
X528320Y571500D03*
X528320Y546100D03*
X528320Y520700D03*
X528320Y495300D03*
X528320Y469900D03*
X528320Y444500D03*
X528320Y419100D03*
X528320Y393700D03*
X528320Y368300D03*
X528320Y342900D03*
X528320Y317500D03*
X528320Y292100D03*
X934720Y292100D03*
X934720Y317500D03*
X934720Y342900D03*
X934720Y368300D03*
X934720Y393700D03*
X934720Y419100D03*
X934720Y444500D03*
X934720Y469900D03*
X934720Y495300D03*
X934720Y520700D03*
X934720Y546100D03*
X934720Y571500D03*
X934720Y596900D03*
X934720Y622300D03*
X934720Y647700D03*
X960120Y647700D03*
X960120Y622300D03*
X960120Y596900D03*
X960120Y571500D03*
X960120Y546100D03*
X960120Y520700D03*
X960120Y495300D03*
X960120Y469900D03*
X960120Y444500D03*
X960120Y419100D03*
X960120Y393700D03*
X960120Y368300D03*
X960120Y342900D03*
X960120Y317500D03*
X960120Y292100D03*
X502920Y647700D03*
X502920Y622300D03*
X502920Y596900D03*
X502920Y571500D03*
X502920Y546100D03*
X502920Y520700D03*
X502920Y495300D03*
X502920Y469900D03*
X502920Y444500D03*
X502920Y419100D03*
X502920Y393700D03*
X502920Y368300D03*
X502920Y342900D03*
X502920Y317500D03*
X502920Y292100D03*
D21*
X447040Y287020D02*
X447040Y302260D01*
X421640Y302260D02*
X421640Y287020D01*
X396240Y287020D02*
X396240Y302260D01*
D22*
X378460Y179070D03*
X378460Y204470D03*
X403860Y179070D03*
X403860Y204470D03*
X429260Y179070D03*
X429260Y204470D03*
X454660Y179070D03*
X454660Y204470D03*
X485140Y180340D03*
X485140Y205740D03*
X510540Y180340D03*
X510540Y205740D03*
X535940Y180340D03*
X535940Y205740D03*
X561340Y180340D03*
X561340Y205740D03*
X472440Y812800D03*
X472440Y838200D03*
X497840Y812800D03*
X497840Y838200D03*
X523240Y812800D03*
X523240Y838200D03*
X548640Y812800D03*
X548640Y838200D03*
D23*
X873760Y899160D03*
D24*
X822960Y899160D03*
D20*
X883920Y292100D03*
X883920Y317500D03*
X883920Y342900D03*
X883920Y368300D03*
X883920Y393700D03*
X883920Y419100D03*
X883920Y444500D03*
X883920Y469900D03*
X883920Y495300D03*
X883920Y520700D03*
X883920Y546100D03*
X883920Y571500D03*
X883920Y596900D03*
X883920Y622300D03*
X883920Y647700D03*
X579120Y292100D03*
X579120Y317500D03*
X579120Y342900D03*
X579120Y368300D03*
X579120Y393700D03*
X579120Y419100D03*
X579120Y444500D03*
X579120Y469900D03*
X579120Y495300D03*
X579120Y520700D03*
X579120Y546100D03*
X579120Y571500D03*
X579120Y596900D03*
X579120Y622300D03*
X579120Y647700D03*
D22*
X472440Y746760D03*
X472440Y772160D03*
X497840Y746760D03*
X497840Y772160D03*
X523240Y746760D03*
X523240Y772160D03*
X548640Y746760D03*
X548640Y772160D03*
D25*
X53340Y795020D03*
D26*
X53340Y845820D03*
X53340Y896620D03*
D25*
X53340Y640080D03*
D26*
X53340Y690880D03*
X53340Y741680D03*
D25*
X53340Y485140D03*
D26*
X53340Y535940D03*
X53340Y586740D03*
D14*
X53340Y373380D03*
D15*
X53340Y424180D03*
D14*
X53340Y261620D03*
D15*
X53340Y312420D03*
D27*
X714885Y590310D03*
X733235Y590310D03*
X705710Y581135D03*
X724060Y581135D03*
X742410Y581135D03*
X714885Y571960D03*
X733235Y571960D03*
X705710Y562785D03*
X724060Y562785D03*
X742410Y562785D03*
X714885Y553610D03*
X733235Y553610D03*
D28*
X715320Y217140D03*
X773120Y217140D03*
D29*
X601472Y205740D02*
X587248Y205740D01*
X587248Y180340D02*
X601472Y180340D01*
M02*
