G04 EAGLE Gerber RS-274X export*
G75*
%MOMM*%
%FSLAX34Y34*%
%LPD*%
%INSoldermask Bottom*%
%IPPOS*%
%AMOC8*
5,1,8,0,0,1.08239X$1,22.5*%
G01*
%ADD10C,2.000000*%
%ADD11R,2.133600X2.133600*%
%ADD12C,3.203200*%
%ADD13C,1.711200*%
%ADD14R,2.153200X2.153200*%
%ADD15C,2.153200*%
%ADD16R,1.511200X1.511200*%
%ADD17C,1.511200*%
%ADD18C,6.203200*%
%ADD19P,1.869504X8X292.500000*%
%ADD20R,1.727200X1.727200*%
%ADD21C,1.727200*%
%ADD22P,1.869504X8X22.500000*%
%ADD23R,2.678200X2.678200*%
%ADD24C,2.678200*%
%ADD25R,2.528200X2.528200*%
%ADD26C,2.528200*%
%ADD27C,1.625600*%


D10*
X99060Y914400D02*
X99060Y955040D01*
X214160Y956780D02*
X214160Y919480D01*
X214160Y956780D02*
X200660Y970280D01*
X114300Y970280D01*
X99060Y955040D01*
X99060Y914400D02*
X81280Y896620D01*
X53340Y896620D01*
X53340Y845820D02*
X215900Y845820D01*
X239160Y822560D01*
X239160Y820820D02*
X239160Y741480D01*
X239160Y820820D02*
X251460Y833120D01*
X239160Y822560D02*
X239160Y820820D01*
X251460Y833120D02*
X388520Y833120D01*
X124460Y741680D02*
X53340Y741680D01*
X124460Y741680D02*
X142160Y723980D01*
X142160Y662940D01*
X91440Y690880D02*
X53340Y690880D01*
X91440Y690880D02*
X104140Y678180D01*
X104140Y632460D01*
X133660Y602940D01*
X284160Y602940D01*
X142160Y551260D02*
X53340Y640080D01*
X142160Y551260D02*
X142160Y542940D01*
X137160Y502920D02*
X53340Y586740D01*
X137160Y502920D02*
X142160Y502920D01*
X146360Y442920D02*
X53340Y535940D01*
X146360Y442920D02*
X284160Y442920D01*
X142160Y396320D02*
X53340Y485140D01*
X142160Y396320D02*
X142160Y382920D01*
X96520Y398780D02*
X71120Y424180D01*
X96520Y398780D02*
X96520Y335280D01*
X111760Y320040D02*
X193040Y320040D01*
X111760Y320040D02*
X96520Y335280D01*
X193040Y320040D02*
X205740Y332740D01*
X205740Y347980D01*
X71120Y424180D02*
X53340Y424180D01*
D11*
X858520Y292100D03*
X858520Y317500D03*
X858520Y342900D03*
X858520Y368300D03*
X858520Y393700D03*
X858520Y419100D03*
X858520Y444500D03*
X858520Y469900D03*
X858520Y495300D03*
X858520Y520700D03*
X858520Y546100D03*
X858520Y571500D03*
X858520Y596900D03*
X858520Y622300D03*
X858520Y647700D03*
X604520Y292100D03*
X604520Y317500D03*
X604520Y342900D03*
X604520Y368300D03*
X604520Y393700D03*
X604520Y419100D03*
X604520Y444500D03*
X604520Y469900D03*
X604520Y495300D03*
X604520Y520700D03*
X604520Y546100D03*
X604520Y571500D03*
X604520Y596900D03*
X604520Y622300D03*
X604520Y647700D03*
D12*
X391160Y830480D03*
X239160Y741480D03*
X214160Y919480D03*
X138160Y919480D03*
D13*
X366160Y779480D03*
X366160Y881480D03*
D14*
X264160Y662940D03*
D15*
X142160Y662940D03*
X142160Y542940D03*
X264160Y542940D03*
X284160Y602940D03*
D13*
X129540Y347980D03*
X205740Y347980D03*
X307340Y347980D03*
X332740Y347980D03*
D16*
X472440Y937260D03*
D17*
X507440Y937260D03*
D18*
X40640Y957580D03*
X949960Y957580D03*
X949960Y200660D03*
X40640Y200660D03*
D14*
X264160Y502920D03*
D15*
X142160Y502920D03*
X142160Y382920D03*
X264160Y382920D03*
X284160Y442920D03*
D13*
X129540Y289560D03*
X205740Y289560D03*
X307340Y289560D03*
X332740Y289560D03*
D19*
X414020Y541020D03*
X439420Y541020D03*
X414020Y515620D03*
X439420Y515620D03*
X414020Y490220D03*
X439420Y490220D03*
X414020Y464820D03*
X439420Y464820D03*
X414020Y439420D03*
X439420Y439420D03*
D20*
X909320Y292100D03*
X909320Y317500D03*
X909320Y342900D03*
X909320Y368300D03*
X909320Y393700D03*
X909320Y419100D03*
X909320Y444500D03*
X909320Y469900D03*
X909320Y495300D03*
X909320Y520700D03*
X909320Y546100D03*
X909320Y571500D03*
X909320Y596900D03*
X909320Y622300D03*
X909320Y647700D03*
X553720Y292100D03*
X553720Y317500D03*
X553720Y342900D03*
X553720Y368300D03*
X553720Y393700D03*
X553720Y419100D03*
X553720Y444500D03*
X553720Y469900D03*
X553720Y495300D03*
X553720Y520700D03*
X553720Y546100D03*
X553720Y571500D03*
X553720Y596900D03*
X553720Y622300D03*
X553720Y647700D03*
X528320Y647700D03*
X528320Y622300D03*
X528320Y596900D03*
X528320Y571500D03*
X528320Y546100D03*
X528320Y520700D03*
X528320Y495300D03*
X528320Y469900D03*
X528320Y444500D03*
X528320Y419100D03*
X528320Y393700D03*
X528320Y368300D03*
X528320Y342900D03*
X528320Y317500D03*
X528320Y292100D03*
X934720Y292100D03*
X934720Y317500D03*
X934720Y342900D03*
X934720Y368300D03*
X934720Y393700D03*
X934720Y419100D03*
X934720Y444500D03*
X934720Y469900D03*
X934720Y495300D03*
X934720Y520700D03*
X934720Y546100D03*
X934720Y571500D03*
X934720Y596900D03*
X934720Y622300D03*
X934720Y647700D03*
X962660Y647700D03*
X962660Y622300D03*
X962660Y596900D03*
X962660Y571500D03*
X962660Y546100D03*
X962660Y520700D03*
X962660Y495300D03*
X962660Y469900D03*
X962660Y444500D03*
X962660Y419100D03*
X962660Y393700D03*
X962660Y368300D03*
X962660Y342900D03*
X962660Y317500D03*
X962660Y292100D03*
X502920Y647700D03*
X502920Y622300D03*
X502920Y596900D03*
X502920Y571500D03*
X502920Y546100D03*
X502920Y520700D03*
X502920Y495300D03*
X502920Y469900D03*
X502920Y444500D03*
X502920Y419100D03*
X502920Y393700D03*
X502920Y368300D03*
X502920Y342900D03*
X502920Y317500D03*
X502920Y292100D03*
D21*
X447040Y287020D02*
X447040Y302260D01*
X421640Y302260D02*
X421640Y287020D01*
X396240Y287020D02*
X396240Y302260D01*
D22*
X378460Y184150D03*
X378460Y209550D03*
X403860Y184150D03*
X403860Y209550D03*
X429260Y184150D03*
X429260Y209550D03*
X454660Y184150D03*
X454660Y209550D03*
X485140Y180340D03*
X485140Y205740D03*
X510540Y180340D03*
X510540Y205740D03*
X535940Y180340D03*
X535940Y205740D03*
X561340Y180340D03*
X561340Y205740D03*
X472440Y812800D03*
X472440Y838200D03*
X497840Y812800D03*
X497840Y838200D03*
X523240Y812800D03*
X523240Y838200D03*
X548640Y812800D03*
X548640Y838200D03*
D23*
X873760Y899160D03*
D24*
X822960Y899160D03*
D20*
X883920Y292100D03*
X883920Y317500D03*
X883920Y342900D03*
X883920Y368300D03*
X883920Y393700D03*
X883920Y419100D03*
X883920Y444500D03*
X883920Y469900D03*
X883920Y495300D03*
X883920Y520700D03*
X883920Y546100D03*
X883920Y571500D03*
X883920Y596900D03*
X883920Y622300D03*
X883920Y647700D03*
X579120Y292100D03*
X579120Y317500D03*
X579120Y342900D03*
X579120Y368300D03*
X579120Y393700D03*
X579120Y419100D03*
X579120Y444500D03*
X579120Y469900D03*
X579120Y495300D03*
X579120Y520700D03*
X579120Y546100D03*
X579120Y571500D03*
X579120Y596900D03*
X579120Y622300D03*
X579120Y647700D03*
X629920Y292100D03*
X629920Y317500D03*
X629920Y342900D03*
X629920Y368300D03*
X629920Y393700D03*
X629920Y419100D03*
X629920Y444500D03*
X629920Y469900D03*
X629920Y495300D03*
X629920Y520700D03*
X629920Y546100D03*
X629920Y571500D03*
X629920Y596900D03*
X629920Y622300D03*
X629920Y647700D03*
D22*
X472440Y746760D03*
X472440Y772160D03*
X497840Y746760D03*
X497840Y772160D03*
X523240Y746760D03*
X523240Y772160D03*
X548640Y746760D03*
X548640Y772160D03*
D25*
X53340Y795020D03*
D26*
X53340Y845820D03*
X53340Y896620D03*
D25*
X53340Y640080D03*
D26*
X53340Y690880D03*
X53340Y741680D03*
D25*
X53340Y485140D03*
D26*
X53340Y535940D03*
X53340Y586740D03*
D14*
X53340Y373380D03*
D15*
X53340Y424180D03*
D14*
X53340Y261620D03*
D15*
X53340Y312420D03*
D27*
X683260Y752348D02*
X683260Y766572D01*
X657860Y766572D02*
X657860Y752348D01*
M02*
