G04 EAGLE Gerber RS-274X export*
G75*
%MOMM*%
%FSLAX34Y34*%
%LPD*%
%INSoldermask Top*%
%IPPOS*%
%AMOC8*
5,1,8,0,0,1.08239X$1,22.5*%
G01*
%ADD10R,2.133600X2.133600*%
%ADD11C,3.203200*%
%ADD12C,1.711200*%
%ADD13R,2.153200X2.153200*%
%ADD14C,2.153200*%
%ADD15R,3.103200X5.603200*%
%ADD16R,1.511200X1.511200*%
%ADD17C,1.511200*%
%ADD18R,2.553200X1.753200*%
%ADD19R,1.673200X1.223200*%
%ADD20R,1.653200X1.353200*%
%ADD21R,4.303200X2.203200*%
%ADD22C,6.203200*%
%ADD23R,1.223200X2.363200*%
%ADD24R,8.533200X7.193200*%
%ADD25R,1.438200X2.113200*%
%ADD26R,0.703200X1.203200*%
%ADD27R,1.103200X1.603200*%
%ADD28R,0.853200X1.103200*%
%ADD29R,1.903200X2.753200*%
%ADD30R,2.753200X1.903200*%
%ADD31P,1.869504X8X292.500000*%
%ADD32R,1.727200X1.727200*%
%ADD33C,1.727200*%
%ADD34P,1.869504X8X22.500000*%
%ADD35R,2.678200X2.678200*%
%ADD36C,2.678200*%
%ADD37R,1.153200X1.453200*%
%ADD38R,3.403200X1.453200*%
%ADD39R,1.193200X0.983200*%
%ADD40R,2.528200X2.528200*%
%ADD41C,2.528200*%
%ADD42R,1.203200X1.303200*%
%ADD43R,2.203200X1.103200*%
%ADD44R,1.103200X2.203200*%
%ADD45R,1.533200X1.533200*%
%ADD46C,0.911200*%
%ADD47R,1.153200X1.103200*%
%ADD48R,1.103200X0.853200*%
%ADD49R,1.603200X1.103200*%
%ADD50R,1.003200X1.103200*%
%ADD51R,1.143200X1.003200*%
%ADD52R,1.729200X0.638200*%
%ADD53R,0.400000X1.240000*%
%ADD54R,0.700000X1.240000*%
%ADD55C,0.803200*%
%ADD56R,2.023200X1.813200*%
%ADD57C,1.625600*%
%ADD58R,2.303200X1.603200*%

G36*
X788588Y211616D02*
X788588Y211616D01*
X788594Y211622D01*
X788599Y211619D01*
X789656Y211989D01*
X789660Y211996D01*
X789666Y211993D01*
X790614Y212589D01*
X790617Y212597D01*
X790622Y212596D01*
X791414Y213388D01*
X791415Y213396D01*
X791421Y213396D01*
X792017Y214344D01*
X792016Y214353D01*
X792021Y214354D01*
X792391Y215411D01*
X792390Y215415D01*
X792392Y215417D01*
X792390Y215420D01*
X792394Y215422D01*
X792519Y216535D01*
X792517Y216538D01*
X792519Y216540D01*
X792519Y227540D01*
X792517Y227543D01*
X792519Y227546D01*
X792394Y228658D01*
X792388Y228664D01*
X792391Y228669D01*
X792021Y229726D01*
X792015Y229730D01*
X792017Y229736D01*
X791421Y230684D01*
X791413Y230687D01*
X791414Y230692D01*
X790622Y231484D01*
X790614Y231485D01*
X790614Y231491D01*
X789666Y232087D01*
X789657Y232086D01*
X789656Y232091D01*
X788599Y232461D01*
X788591Y232459D01*
X788588Y232464D01*
X787476Y232589D01*
X787469Y232585D01*
X787465Y232589D01*
X786362Y232476D01*
X786357Y232471D01*
X786355Y232471D01*
X786352Y232474D01*
X785302Y232118D01*
X785297Y232111D01*
X785292Y232113D01*
X784347Y231533D01*
X784344Y231526D01*
X784338Y231526D01*
X783547Y230751D01*
X783545Y230742D01*
X783540Y230742D01*
X782940Y229809D01*
X782941Y229801D01*
X782936Y229800D01*
X782559Y228757D01*
X782561Y228749D01*
X782556Y228746D01*
X782421Y227646D01*
X782423Y227642D01*
X782421Y227640D01*
X782421Y216640D01*
X782423Y216637D01*
X782421Y216635D01*
X782537Y215510D01*
X782542Y215504D01*
X782539Y215499D01*
X782902Y214428D01*
X782909Y214424D01*
X782906Y214418D01*
X783499Y213455D01*
X783506Y213452D01*
X783505Y213446D01*
X784297Y212638D01*
X784305Y212637D01*
X784306Y212632D01*
X785257Y212020D01*
X785265Y212021D01*
X785267Y212016D01*
X786331Y211631D01*
X786339Y211634D01*
X786342Y211629D01*
X787464Y211491D01*
X787471Y211495D01*
X787476Y211491D01*
X788588Y211616D01*
G37*
G36*
X702088Y211616D02*
X702088Y211616D01*
X702094Y211622D01*
X702099Y211619D01*
X703156Y211989D01*
X703160Y211996D01*
X703166Y211993D01*
X704114Y212589D01*
X704117Y212597D01*
X704122Y212596D01*
X704914Y213388D01*
X704915Y213396D01*
X704921Y213396D01*
X705517Y214344D01*
X705516Y214353D01*
X705521Y214354D01*
X705891Y215411D01*
X705890Y215415D01*
X705892Y215417D01*
X705890Y215420D01*
X705894Y215422D01*
X706019Y216535D01*
X706017Y216538D01*
X706019Y216540D01*
X706019Y227540D01*
X706017Y227543D01*
X706019Y227546D01*
X705894Y228658D01*
X705888Y228664D01*
X705891Y228669D01*
X705521Y229726D01*
X705515Y229730D01*
X705517Y229736D01*
X704921Y230684D01*
X704913Y230687D01*
X704914Y230692D01*
X704122Y231484D01*
X704114Y231485D01*
X704114Y231491D01*
X703166Y232087D01*
X703157Y232086D01*
X703156Y232091D01*
X702099Y232461D01*
X702091Y232459D01*
X702088Y232464D01*
X700976Y232589D01*
X700968Y232585D01*
X700965Y232589D01*
X699852Y232464D01*
X699846Y232458D01*
X699841Y232461D01*
X698784Y232091D01*
X698780Y232085D01*
X698774Y232087D01*
X697826Y231491D01*
X697823Y231483D01*
X697818Y231484D01*
X697026Y230692D01*
X697025Y230684D01*
X697019Y230684D01*
X696423Y229736D01*
X696424Y229729D01*
X696420Y229727D01*
X696420Y229726D01*
X696419Y229726D01*
X696049Y228669D01*
X696051Y228661D01*
X696046Y228658D01*
X695921Y227546D01*
X695923Y227542D01*
X695921Y227540D01*
X695921Y216540D01*
X695923Y216537D01*
X695921Y216535D01*
X696046Y215422D01*
X696052Y215416D01*
X696049Y215411D01*
X696419Y214354D01*
X696426Y214350D01*
X696423Y214344D01*
X697019Y213396D01*
X697027Y213393D01*
X697026Y213388D01*
X697818Y212596D01*
X697826Y212595D01*
X697826Y212589D01*
X698774Y211993D01*
X698783Y211994D01*
X698784Y211989D01*
X699841Y211619D01*
X699849Y211621D01*
X699852Y211616D01*
X700965Y211491D01*
X700972Y211495D01*
X700976Y211491D01*
X702088Y211616D01*
G37*
G36*
X702088Y171416D02*
X702088Y171416D01*
X702094Y171422D01*
X702099Y171419D01*
X703156Y171789D01*
X703160Y171796D01*
X703166Y171793D01*
X704114Y172389D01*
X704117Y172397D01*
X704122Y172396D01*
X704914Y173188D01*
X704915Y173196D01*
X704921Y173196D01*
X705517Y174144D01*
X705516Y174153D01*
X705521Y174154D01*
X705891Y175211D01*
X705890Y175215D01*
X705892Y175217D01*
X705890Y175220D01*
X705894Y175222D01*
X706019Y176335D01*
X706017Y176338D01*
X706019Y176340D01*
X706019Y184340D01*
X706017Y184343D01*
X706019Y184346D01*
X705894Y185458D01*
X705888Y185464D01*
X705891Y185469D01*
X705521Y186526D01*
X705515Y186530D01*
X705517Y186536D01*
X704921Y187484D01*
X704913Y187487D01*
X704914Y187492D01*
X704122Y188284D01*
X704114Y188285D01*
X704114Y188291D01*
X703166Y188887D01*
X703157Y188886D01*
X703156Y188891D01*
X702099Y189261D01*
X702091Y189259D01*
X702088Y189264D01*
X700976Y189389D01*
X700968Y189385D01*
X700965Y189389D01*
X699852Y189264D01*
X699846Y189258D01*
X699841Y189261D01*
X698784Y188891D01*
X698780Y188885D01*
X698774Y188887D01*
X697826Y188291D01*
X697823Y188283D01*
X697818Y188284D01*
X697026Y187492D01*
X697025Y187484D01*
X697019Y187484D01*
X696423Y186536D01*
X696424Y186527D01*
X696419Y186526D01*
X696049Y185469D01*
X696051Y185461D01*
X696046Y185458D01*
X695921Y184346D01*
X695923Y184342D01*
X695921Y184340D01*
X695921Y176340D01*
X695923Y176337D01*
X695921Y176335D01*
X696046Y175222D01*
X696052Y175216D01*
X696049Y175211D01*
X696419Y174154D01*
X696426Y174150D01*
X696423Y174144D01*
X697019Y173196D01*
X697027Y173193D01*
X697026Y173188D01*
X697818Y172396D01*
X697826Y172395D01*
X697826Y172389D01*
X698774Y171793D01*
X698783Y171794D01*
X698784Y171789D01*
X699841Y171419D01*
X699849Y171421D01*
X699852Y171416D01*
X700965Y171291D01*
X700972Y171295D01*
X700976Y171291D01*
X702088Y171416D01*
G37*
G36*
X788588Y171416D02*
X788588Y171416D01*
X788594Y171422D01*
X788599Y171419D01*
X789656Y171789D01*
X789660Y171796D01*
X789666Y171793D01*
X790614Y172389D01*
X790617Y172397D01*
X790622Y172396D01*
X791414Y173188D01*
X791415Y173196D01*
X791421Y173196D01*
X792017Y174144D01*
X792016Y174153D01*
X792021Y174154D01*
X792391Y175211D01*
X792390Y175215D01*
X792392Y175217D01*
X792390Y175220D01*
X792394Y175222D01*
X792519Y176335D01*
X792517Y176338D01*
X792519Y176340D01*
X792519Y184340D01*
X792517Y184343D01*
X792519Y184346D01*
X792394Y185458D01*
X792388Y185464D01*
X792391Y185469D01*
X792021Y186526D01*
X792015Y186530D01*
X792017Y186536D01*
X791421Y187484D01*
X791413Y187487D01*
X791414Y187492D01*
X790622Y188284D01*
X790614Y188285D01*
X790614Y188291D01*
X789666Y188887D01*
X789657Y188886D01*
X789656Y188891D01*
X788599Y189261D01*
X788591Y189259D01*
X788588Y189264D01*
X787476Y189389D01*
X787468Y189385D01*
X787465Y189389D01*
X786352Y189264D01*
X786346Y189258D01*
X786341Y189261D01*
X785284Y188891D01*
X785280Y188885D01*
X785274Y188887D01*
X784326Y188291D01*
X784323Y188283D01*
X784318Y188284D01*
X783526Y187492D01*
X783525Y187484D01*
X783519Y187484D01*
X782923Y186536D01*
X782924Y186527D01*
X782919Y186526D01*
X782549Y185469D01*
X782551Y185461D01*
X782546Y185458D01*
X782421Y184346D01*
X782423Y184342D01*
X782421Y184340D01*
X782421Y176340D01*
X782423Y176337D01*
X782421Y176335D01*
X782546Y175222D01*
X782552Y175216D01*
X782549Y175211D01*
X782919Y174154D01*
X782926Y174150D01*
X782923Y174144D01*
X783519Y173196D01*
X783527Y173193D01*
X783526Y173188D01*
X784318Y172396D01*
X784326Y172395D01*
X784326Y172389D01*
X785274Y171793D01*
X785283Y171794D01*
X785284Y171789D01*
X786341Y171419D01*
X786349Y171421D01*
X786352Y171416D01*
X787465Y171291D01*
X787472Y171295D01*
X787476Y171291D01*
X788588Y171416D01*
G37*
D10*
X858520Y292100D03*
X858520Y317500D03*
X858520Y342900D03*
X858520Y368300D03*
X858520Y393700D03*
X858520Y419100D03*
X858520Y444500D03*
X858520Y469900D03*
X858520Y495300D03*
X858520Y520700D03*
X858520Y546100D03*
X858520Y571500D03*
X858520Y596900D03*
X858520Y622300D03*
X858520Y647700D03*
X604520Y292100D03*
X604520Y317500D03*
X604520Y342900D03*
X604520Y368300D03*
X604520Y393700D03*
X604520Y419100D03*
X604520Y444500D03*
X604520Y469900D03*
X604520Y495300D03*
X604520Y520700D03*
X604520Y546100D03*
X604520Y571500D03*
X604520Y596900D03*
X604520Y622300D03*
X604520Y647700D03*
D11*
X391160Y830480D03*
X239160Y741480D03*
X214160Y919480D03*
X138160Y919480D03*
D12*
X366160Y779480D03*
X366160Y881480D03*
D13*
X264160Y662940D03*
D14*
X142160Y662940D03*
X142160Y542940D03*
X264160Y542940D03*
X284160Y602940D03*
D12*
X129540Y347980D03*
X205740Y347980D03*
X307340Y347980D03*
X332740Y347980D03*
D15*
X567720Y924560D03*
X666720Y924560D03*
D16*
X472440Y937260D03*
D17*
X507440Y937260D03*
D18*
X626200Y840740D03*
X669200Y840740D03*
D19*
X802640Y827560D03*
X802640Y843760D03*
D20*
X820420Y826660D03*
X820420Y844660D03*
D21*
X868360Y797560D03*
X955360Y797560D03*
D22*
X40640Y957580D03*
X949960Y957580D03*
X949960Y200660D03*
X40640Y200660D03*
D23*
X705140Y843130D03*
X722140Y843130D03*
X739140Y843130D03*
X756140Y843130D03*
X773140Y843130D03*
D24*
X739140Y949880D03*
D25*
X786965Y975280D03*
X691315Y975280D03*
D26*
X356720Y619920D03*
X369720Y619920D03*
X363220Y639920D03*
D27*
X401980Y655320D03*
X420980Y655320D03*
D28*
X439790Y655320D03*
X454290Y655320D03*
D29*
X327660Y646380D03*
X327660Y608380D03*
D28*
X355970Y607060D03*
X370470Y607060D03*
D13*
X264160Y502920D03*
D14*
X142160Y502920D03*
X142160Y382920D03*
X264160Y382920D03*
X284160Y442920D03*
D26*
X356720Y574200D03*
X369720Y574200D03*
X363220Y594200D03*
D27*
X401980Y629920D03*
X420980Y629920D03*
D28*
X439790Y629920D03*
X454290Y629920D03*
D29*
X327660Y577800D03*
X327660Y539800D03*
D28*
X355970Y561340D03*
X370470Y561340D03*
D26*
X356720Y665640D03*
X369720Y665640D03*
X363220Y685640D03*
D27*
X401980Y680720D03*
X420980Y680720D03*
D28*
X439790Y680720D03*
X454290Y680720D03*
D30*
X450900Y713740D03*
X488900Y713740D03*
D28*
X355970Y652780D03*
X370470Y652780D03*
D26*
X356720Y528480D03*
X369720Y528480D03*
X363220Y548480D03*
D27*
X401980Y604520D03*
X420980Y604520D03*
D28*
X439790Y604520D03*
X454290Y604520D03*
D29*
X327660Y506680D03*
X327660Y468680D03*
D28*
X355970Y515620D03*
X370470Y515620D03*
D12*
X129540Y289560D03*
X205740Y289560D03*
X307340Y289560D03*
X332740Y289560D03*
D26*
X356720Y482760D03*
X369720Y482760D03*
X363220Y502760D03*
D27*
X401980Y579120D03*
X420980Y579120D03*
D28*
X439790Y579120D03*
X454290Y579120D03*
D29*
X327660Y397560D03*
X327660Y435560D03*
D28*
X355970Y469900D03*
X370470Y469900D03*
D31*
X414020Y541020D03*
X439420Y541020D03*
X414020Y515620D03*
X439420Y515620D03*
X414020Y490220D03*
X439420Y490220D03*
X414020Y464820D03*
X439420Y464820D03*
X414020Y439420D03*
X439420Y439420D03*
D32*
X909320Y292100D03*
X909320Y317500D03*
X909320Y342900D03*
X909320Y368300D03*
X909320Y393700D03*
X909320Y419100D03*
X909320Y444500D03*
X909320Y469900D03*
X909320Y495300D03*
X909320Y520700D03*
X909320Y546100D03*
X909320Y571500D03*
X909320Y596900D03*
X909320Y622300D03*
X909320Y647700D03*
X553720Y292100D03*
X553720Y317500D03*
X553720Y342900D03*
X553720Y368300D03*
X553720Y393700D03*
X553720Y419100D03*
X553720Y444500D03*
X553720Y469900D03*
X553720Y495300D03*
X553720Y520700D03*
X553720Y546100D03*
X553720Y571500D03*
X553720Y596900D03*
X553720Y622300D03*
X553720Y647700D03*
X528320Y647700D03*
X528320Y622300D03*
X528320Y596900D03*
X528320Y571500D03*
X528320Y546100D03*
X528320Y520700D03*
X528320Y495300D03*
X528320Y469900D03*
X528320Y444500D03*
X528320Y419100D03*
X528320Y393700D03*
X528320Y368300D03*
X528320Y342900D03*
X528320Y317500D03*
X528320Y292100D03*
X934720Y292100D03*
X934720Y317500D03*
X934720Y342900D03*
X934720Y368300D03*
X934720Y393700D03*
X934720Y419100D03*
X934720Y444500D03*
X934720Y469900D03*
X934720Y495300D03*
X934720Y520700D03*
X934720Y546100D03*
X934720Y571500D03*
X934720Y596900D03*
X934720Y622300D03*
X934720Y647700D03*
X960120Y647700D03*
X960120Y622300D03*
X960120Y596900D03*
X960120Y571500D03*
X960120Y546100D03*
X960120Y520700D03*
X960120Y495300D03*
X960120Y469900D03*
X960120Y444500D03*
X960120Y419100D03*
X960120Y393700D03*
X960120Y368300D03*
X960120Y342900D03*
X960120Y317500D03*
X960120Y292100D03*
X502920Y647700D03*
X502920Y622300D03*
X502920Y596900D03*
X502920Y571500D03*
X502920Y546100D03*
X502920Y520700D03*
X502920Y495300D03*
X502920Y469900D03*
X502920Y444500D03*
X502920Y419100D03*
X502920Y393700D03*
X502920Y368300D03*
X502920Y342900D03*
X502920Y317500D03*
X502920Y292100D03*
D33*
X447040Y287020D02*
X447040Y302260D01*
X421640Y302260D02*
X421640Y287020D01*
X396240Y287020D02*
X396240Y302260D01*
D34*
X378460Y179070D03*
X378460Y204470D03*
X403860Y179070D03*
X403860Y204470D03*
X429260Y179070D03*
X429260Y204470D03*
X454660Y179070D03*
X454660Y204470D03*
X485140Y180340D03*
X485140Y205740D03*
X510540Y180340D03*
X510540Y205740D03*
X535940Y180340D03*
X535940Y205740D03*
X561340Y180340D03*
X561340Y205740D03*
X472440Y812800D03*
X472440Y838200D03*
X497840Y812800D03*
X497840Y838200D03*
X523240Y812800D03*
X523240Y838200D03*
X548640Y812800D03*
X548640Y838200D03*
D35*
X873760Y899160D03*
D36*
X822960Y899160D03*
D32*
X883920Y292100D03*
X883920Y317500D03*
X883920Y342900D03*
X883920Y368300D03*
X883920Y393700D03*
X883920Y419100D03*
X883920Y444500D03*
X883920Y469900D03*
X883920Y495300D03*
X883920Y520700D03*
X883920Y546100D03*
X883920Y571500D03*
X883920Y596900D03*
X883920Y622300D03*
X883920Y647700D03*
X579120Y292100D03*
X579120Y317500D03*
X579120Y342900D03*
X579120Y368300D03*
X579120Y393700D03*
X579120Y419100D03*
X579120Y444500D03*
X579120Y469900D03*
X579120Y495300D03*
X579120Y520700D03*
X579120Y546100D03*
X579120Y571500D03*
X579120Y596900D03*
X579120Y622300D03*
X579120Y647700D03*
D34*
X472440Y746760D03*
X472440Y772160D03*
X497840Y746760D03*
X497840Y772160D03*
X523240Y746760D03*
X523240Y772160D03*
X548640Y746760D03*
X548640Y772160D03*
D37*
X401180Y344460D03*
X424180Y344460D03*
X447180Y344460D03*
D38*
X424180Y412460D03*
D39*
X467360Y379080D03*
X467360Y393080D03*
X381000Y379080D03*
X381000Y393080D03*
D40*
X53340Y795020D03*
D41*
X53340Y845820D03*
X53340Y896620D03*
D40*
X53340Y640080D03*
D41*
X53340Y690880D03*
X53340Y741680D03*
D40*
X53340Y485140D03*
D41*
X53340Y535940D03*
X53340Y586740D03*
D13*
X53340Y373380D03*
D14*
X53340Y424180D03*
D13*
X53340Y261620D03*
D14*
X53340Y312420D03*
D42*
X579120Y674760D03*
X579120Y691760D03*
D43*
X649060Y646960D03*
X649060Y634260D03*
X649060Y621560D03*
X649060Y608860D03*
X649060Y596160D03*
X649060Y583460D03*
X649060Y570760D03*
X649060Y558060D03*
X649060Y545360D03*
X649060Y532660D03*
X649060Y519960D03*
X649060Y507260D03*
X649060Y494560D03*
X649060Y481860D03*
D44*
X676910Y471860D03*
X689610Y471860D03*
X702310Y471860D03*
X715010Y471860D03*
X727710Y471860D03*
X740410Y471860D03*
X753110Y471860D03*
X765810Y471860D03*
X778510Y471860D03*
X791210Y471860D03*
D43*
X819060Y481860D03*
X819060Y494560D03*
X819060Y507260D03*
X819060Y519960D03*
X819060Y532660D03*
X819060Y545360D03*
X819060Y558060D03*
X819060Y570760D03*
X819060Y583460D03*
X819060Y596160D03*
X819060Y608860D03*
X819060Y621560D03*
X819060Y634260D03*
X819060Y646960D03*
D45*
X705710Y590310D03*
X724060Y590310D03*
X742410Y590310D03*
X705710Y571960D03*
X724060Y571960D03*
X742410Y571960D03*
X705710Y553610D03*
X724060Y553610D03*
X742410Y553610D03*
D46*
X714885Y590310D03*
X733235Y590310D03*
X705710Y581135D03*
X724060Y581135D03*
X742410Y581135D03*
X714885Y571960D03*
X733235Y571960D03*
X705710Y562785D03*
X724060Y562785D03*
X742410Y562785D03*
X714885Y553610D03*
X733235Y553610D03*
D47*
X617220Y259460D03*
X617220Y243460D03*
X716280Y277240D03*
X716280Y261240D03*
X670560Y277240D03*
X670560Y261240D03*
D48*
X680720Y233310D03*
X680720Y218810D03*
D49*
X680720Y175920D03*
X680720Y194920D03*
D50*
X649580Y276700D03*
X630580Y276700D03*
X640080Y256700D03*
X702920Y276700D03*
X683920Y276700D03*
X693420Y256700D03*
D51*
X822960Y306420D03*
X822960Y293020D03*
X810260Y306420D03*
X810260Y293020D03*
D52*
X712920Y314320D03*
X712920Y320680D03*
X712920Y327020D03*
X712920Y333380D03*
X712920Y339720D03*
X712920Y346080D03*
X712920Y352420D03*
X712920Y358780D03*
X712920Y365120D03*
X712920Y371480D03*
X658680Y371480D03*
X658680Y365120D03*
X658680Y358780D03*
X658680Y352420D03*
X658680Y346080D03*
X658680Y339720D03*
X658680Y333380D03*
X658680Y327020D03*
X658680Y320680D03*
X658680Y314320D03*
D48*
X655320Y233310D03*
X655320Y218810D03*
X629920Y233310D03*
X629920Y218810D03*
D49*
X655320Y175920D03*
X655320Y194920D03*
X629920Y175920D03*
X629920Y194920D03*
D51*
X637540Y356520D03*
X637540Y369920D03*
X756920Y257460D03*
X756920Y270860D03*
X792480Y257460D03*
X792480Y270860D03*
D53*
X726720Y227840D03*
X731720Y227840D03*
X736720Y227840D03*
X761720Y227840D03*
X756720Y227840D03*
X751720Y227840D03*
X741720Y227840D03*
X746720Y227840D03*
D54*
X712220Y227840D03*
X776220Y227840D03*
X720220Y227840D03*
X768220Y227840D03*
D55*
X715320Y217140D03*
X773120Y217140D03*
D56*
X774700Y258780D03*
X774700Y284780D03*
D51*
X774700Y315880D03*
X774700Y329280D03*
D57*
X601472Y205740D02*
X587248Y205740D01*
X587248Y180340D02*
X601472Y180340D01*
D58*
X815560Y263800D03*
X906560Y263800D03*
X815560Y218800D03*
X906560Y218800D03*
M02*
